<svg id="Group_1510" data-name="Group 1510" xmlns="http://www.w3.org/2000/svg" width="169.104" height="92.671" viewBox="0 0 169.104 92.671">
  <g id="Group_869" data-name="Group 869" transform="translate(0 0)">
    <path id="Path_10518" data-name="Path 10518" d="M177.847,228.141a7.5,7.5,0,0,0-6.928,4.525,6.748,6.748,0,0,0,1.553,8.016,8.023,8.023,0,0,0,7.6,1.544,6.781,6.781,0,0,0,4.545-6.374,7.577,7.577,0,0,0-4.72-7.307,1.7,1.7,0,0,0-2.084,1.183A1.743,1.743,0,0,0,179,231.811c.3.114-.27-.145.006.005.113.062.229.118.34.184.095.056.185.117.277.178.316.206-.154-.152.048.034.175.161.349.318.508.5.06.067.3.254.113.123-.14-.1-.054-.076,0,0,.041.061.084.12.125.181a6.047,6.047,0,0,1,.36.622c.025.05.048.1.073.15.047.092.116.117,0,0s-.039-.1,0,0c.025.07.052.139.077.209a6.526,6.526,0,0,1,.2.7c.025.109.045.219.066.329.076.389-.011-.242.007.047.015.241.033.48.029.722q0,.166-.014.332c0,.055-.01.11-.014.165-.018.266-.018-.1.019-.122a3.128,3.128,0,0,0-.153.7c-.03.105-.066.208-.1.313-.118.364.111-.2-.015.05a6.2,6.2,0,0,1-.346.621c-.055.084-.263.273-.093.141s-.1.1-.157.167q-.116.122-.24.236a1.921,1.921,0,0,1-.168.146c-.011-.005.283-.2.125-.1-.2.128-.392.266-.6.378-.025.013-.3.139-.295.143-.012-.046.349-.127.1-.047-.052.017-.1.037-.155.055a5.536,5.536,0,0,1-.688.183c-.053.011-.11.016-.162.03-.175.045.167-.027.178-.021a1.477,1.477,0,0,0-.386.034,6.307,6.307,0,0,1-.722,0l-.167-.012c-.129-.008-.224-.1-.052,0,.133.078.122.021,0,0l-.165-.029a6.572,6.572,0,0,1-.7-.173c-.125-.038-.247-.082-.37-.125a.975.975,0,0,1-.156-.06c0-.014.317.152.149.061-.212-.114-.431-.21-.637-.334-.11-.067-.216-.139-.323-.21a1.042,1.042,0,0,1-.134-.1c0-.014.263.226.127.1-.172-.164-.356-.311-.519-.485-.037-.04-.073-.082-.11-.122l-.036-.041q-.138-.168-.005,0c.09.026.086.125,0,0-.03-.046-.063-.09-.093-.136a3.542,3.542,0,0,1-.35-.625c.008-.006.147.408.041.1-.02-.059-.043-.117-.062-.176q-.058-.176-.1-.356c-.029-.119-.044-.241-.074-.36-.05-.2.029.157.02.149-.028-.028-.016-.2-.018-.242-.014-.266.017-.524.021-.788,0-.2-.017.16-.021.149a.574.574,0,0,1,.032-.18c.031-.139.059-.279.1-.416q.064-.237.149-.468c.021-.058.046-.114.066-.172.071-.213-.141.257-.024.065.161-.264.281-.55.452-.81.041-.062.287-.406.156-.232s.134-.155.184-.211c.208-.231.452-.421.667-.643.127-.131-.089.065-.1.074.067-.048.132-.1.2-.144q.176-.122.362-.23c.139-.082.3-.142.431-.228.159-.1-.122.045-.127.048a1.263,1.263,0,0,1,.227-.087c.131-.047.7-.293.822-.216-.005,0-.433.034-.087.012.082-.005.163-.013.245-.017.166-.007.331,0,.5.006a1.706,1.706,0,0,0,1.694-1.694,1.732,1.732,0,0,0-1.694-1.694Z" transform="translate(-136.155 -213.688)" fill="#45c676"/>
    <path id="Path_10521" data-name="Path 10521" d="M177.847,228.141a7.5,7.5,0,0,0-6.928,4.525,6.748,6.748,0,0,0,1.553,8.016,8.023,8.023,0,0,0,7.6,1.544,6.781,6.781,0,0,0,4.545-6.374,7.577,7.577,0,0,0-4.72-7.307,1.7,1.7,0,0,0-2.084,1.183A1.743,1.743,0,0,0,179,231.811c.3.114-.27-.145.006.005.113.062.229.118.34.184.095.056.185.117.277.178.316.206-.154-.152.048.034.175.161.349.318.508.5.06.067.3.254.113.123-.14-.1-.054-.076,0,0,.041.061.084.12.125.181a6.047,6.047,0,0,1,.36.622c.025.05.048.1.073.15.047.092.116.117,0,0s-.039-.1,0,0c.025.07.052.139.077.209a6.526,6.526,0,0,1,.2.7c.025.109.045.219.066.329.076.389-.011-.242.007.047.015.241.033.48.029.722q0,.166-.014.332c0,.055-.01.11-.014.165-.018.266-.018-.1.019-.122a3.128,3.128,0,0,0-.153.7c-.03.105-.066.208-.1.313-.118.364.111-.2-.015.05a6.2,6.2,0,0,1-.346.621c-.055.084-.263.273-.093.141s-.1.1-.157.167q-.116.122-.24.236a1.921,1.921,0,0,1-.168.146c-.011-.005.283-.2.125-.1-.2.128-.392.266-.6.378-.025.013-.3.139-.295.143-.012-.046.349-.127.1-.047-.052.017-.1.037-.155.055a5.536,5.536,0,0,1-.688.183c-.053.011-.11.016-.162.03-.175.045.167-.027.178-.021a1.477,1.477,0,0,0-.386.034,6.307,6.307,0,0,1-.722,0l-.167-.012c-.129-.008-.224-.1-.052,0,.133.078.122.021,0,0l-.165-.029a6.572,6.572,0,0,1-.7-.173c-.125-.038-.247-.082-.37-.125a.975.975,0,0,1-.156-.06c0-.014.317.152.149.061-.212-.114-.431-.21-.637-.334-.11-.067-.216-.139-.323-.21a1.042,1.042,0,0,1-.134-.1c0-.014.263.226.127.1-.172-.164-.356-.311-.519-.485-.037-.04-.073-.082-.11-.122l-.036-.041q-.138-.168-.005,0c.09.026.086.125,0,0-.03-.046-.063-.09-.093-.136a3.542,3.542,0,0,1-.35-.625c.008-.006.147.408.041.1-.02-.059-.043-.117-.062-.176q-.058-.176-.1-.356c-.029-.119-.044-.241-.074-.36-.05-.2.029.157.02.149-.028-.028-.016-.2-.018-.242-.014-.266.017-.524.021-.788,0-.2-.017.16-.021.149a.574.574,0,0,1,.032-.18c.031-.139.059-.279.1-.416q.064-.237.149-.468c.021-.058.046-.114.066-.172.071-.213-.141.257-.024.065.161-.264.281-.55.452-.81.041-.062.287-.406.156-.232s.134-.155.184-.211c.208-.231.452-.421.667-.643.127-.131-.089.065-.1.074.067-.048.132-.1.2-.144q.176-.122.362-.23c.139-.082.3-.142.431-.228.159-.1-.122.045-.127.048a1.263,1.263,0,0,1,.227-.087c.131-.047.7-.293.822-.216-.005,0-.433.034-.087.012.082-.005.163-.013.245-.017.166-.007.331,0,.5.006a1.706,1.706,0,0,0,1.694-1.694,1.732,1.732,0,0,0-1.694-1.694Z" transform="translate(-103.321 -201.524)" fill="#45c676"/>
    <path id="Path_10519" data-name="Path 10519" d="M177.847,228.141a7.5,7.5,0,0,0-6.928,4.525,6.748,6.748,0,0,0,1.553,8.016,8.023,8.023,0,0,0,7.6,1.544,6.781,6.781,0,0,0,4.545-6.374,7.577,7.577,0,0,0-4.72-7.307,1.7,1.7,0,0,0-2.084,1.183A1.743,1.743,0,0,0,179,231.811c.3.114-.27-.145.006.005.113.062.229.118.34.184.095.056.185.117.277.178.316.206-.154-.152.048.034.175.161.349.318.508.5.06.067.3.254.113.123-.14-.1-.054-.076,0,0,.041.061.084.12.125.181a6.047,6.047,0,0,1,.36.622c.025.05.048.1.073.15.047.092.116.117,0,0s-.039-.1,0,0c.025.07.052.139.077.209a6.526,6.526,0,0,1,.2.7c.025.109.045.219.066.329.076.389-.011-.242.007.047.015.241.033.48.029.722q0,.166-.014.332c0,.055-.01.11-.014.165-.018.266-.018-.1.019-.122a3.128,3.128,0,0,0-.153.7c-.03.105-.066.208-.1.313-.118.364.111-.2-.015.05a6.2,6.2,0,0,1-.346.621c-.055.084-.263.273-.093.141s-.1.1-.157.167q-.116.122-.24.236a1.921,1.921,0,0,1-.168.146c-.011-.005.283-.2.125-.1-.2.128-.392.266-.6.378-.025.013-.3.139-.295.143-.012-.046.349-.127.1-.047-.052.017-.1.037-.155.055a5.536,5.536,0,0,1-.688.183c-.053.011-.11.016-.162.03-.175.045.167-.027.178-.021a1.477,1.477,0,0,0-.386.034,6.307,6.307,0,0,1-.722,0l-.167-.012c-.129-.008-.224-.1-.052,0,.133.078.122.021,0,0l-.165-.029a6.572,6.572,0,0,1-.7-.173c-.125-.038-.247-.082-.37-.125a.975.975,0,0,1-.156-.06c0-.014.317.152.149.061-.212-.114-.431-.21-.637-.334-.11-.067-.216-.139-.323-.21a1.042,1.042,0,0,1-.134-.1c0-.014.263.226.127.1-.172-.164-.356-.311-.519-.485-.037-.04-.073-.082-.11-.122l-.036-.041q-.138-.168-.005,0c.09.026.086.125,0,0-.03-.046-.063-.09-.093-.136a3.542,3.542,0,0,1-.35-.625c.008-.006.147.408.041.1-.02-.059-.043-.117-.062-.176q-.058-.176-.1-.356c-.029-.119-.044-.241-.074-.36-.05-.2.029.157.02.149-.028-.028-.016-.2-.018-.242-.014-.266.017-.524.021-.788,0-.2-.017.16-.021.149a.574.574,0,0,1,.032-.18c.031-.139.059-.279.1-.416q.064-.237.149-.468c.021-.058.046-.114.066-.172.071-.213-.141.257-.024.065.161-.264.281-.55.452-.81.041-.062.287-.406.156-.232s.134-.155.184-.211c.208-.231.452-.421.667-.643.127-.131-.089.065-.1.074.067-.048.132-.1.2-.144q.176-.122.362-.23c.139-.082.3-.142.431-.228.159-.1-.122.045-.127.048a1.263,1.263,0,0,1,.227-.087c.131-.047.7-.293.822-.216-.005,0-.433.034-.087.012.082-.005.163-.013.245-.017.166-.007.331,0,.5.006a1.706,1.706,0,0,0,1.694-1.694,1.732,1.732,0,0,0-1.694-1.694Z" transform="translate(-136.155 -187.615)" fill="#45c676"/>
    <path id="Path_10522" data-name="Path 10522" d="M177.847,228.141a7.5,7.5,0,0,0-6.928,4.525,6.748,6.748,0,0,0,1.553,8.016,8.023,8.023,0,0,0,7.6,1.544,6.781,6.781,0,0,0,4.545-6.374,7.577,7.577,0,0,0-4.72-7.307,1.7,1.7,0,0,0-2.084,1.183A1.743,1.743,0,0,0,179,231.811c.3.114-.27-.145.006.005.113.062.229.118.34.184.095.056.185.117.277.178.316.206-.154-.152.048.034.175.161.349.318.508.5.06.067.3.254.113.123-.14-.1-.054-.076,0,0,.041.061.084.12.125.181a6.047,6.047,0,0,1,.36.622c.025.05.048.1.073.15.047.092.116.117,0,0s-.039-.1,0,0c.025.07.052.139.077.209a6.526,6.526,0,0,1,.2.7c.025.109.045.219.066.329.076.389-.011-.242.007.047.015.241.033.48.029.722q0,.166-.014.332c0,.055-.01.11-.014.165-.018.266-.018-.1.019-.122a3.128,3.128,0,0,0-.153.7c-.03.105-.066.208-.1.313-.118.364.111-.2-.015.05a6.2,6.2,0,0,1-.346.621c-.055.084-.263.273-.093.141s-.1.1-.157.167q-.116.122-.24.236a1.921,1.921,0,0,1-.168.146c-.011-.005.283-.2.125-.1-.2.128-.392.266-.6.378-.025.013-.3.139-.295.143-.012-.046.349-.127.1-.047-.052.017-.1.037-.155.055a5.536,5.536,0,0,1-.688.183c-.053.011-.11.016-.162.03-.175.045.167-.027.178-.021a1.477,1.477,0,0,0-.386.034,6.307,6.307,0,0,1-.722,0l-.167-.012c-.129-.008-.224-.1-.052,0,.133.078.122.021,0,0l-.165-.029a6.572,6.572,0,0,1-.7-.173c-.125-.038-.247-.082-.37-.125a.975.975,0,0,1-.156-.06c0-.014.317.152.149.061-.212-.114-.431-.21-.637-.334-.11-.067-.216-.139-.323-.21a1.042,1.042,0,0,1-.134-.1c0-.014.263.226.127.1-.172-.164-.356-.311-.519-.485-.037-.04-.073-.082-.11-.122l-.036-.041q-.138-.168-.005,0c.09.026.086.125,0,0-.03-.046-.063-.09-.093-.136a3.542,3.542,0,0,1-.35-.625c.008-.006.147.408.041.1-.02-.059-.043-.117-.062-.176q-.058-.176-.1-.356c-.029-.119-.044-.241-.074-.36-.05-.2.029.157.02.149-.028-.028-.016-.2-.018-.242-.014-.266.017-.524.021-.788,0-.2-.017.16-.021.149a.574.574,0,0,1,.032-.18c.031-.139.059-.279.1-.416q.064-.237.149-.468c.021-.058.046-.114.066-.172.071-.213-.141.257-.024.065.161-.264.281-.55.452-.81.041-.062.287-.406.156-.232s.134-.155.184-.211c.208-.231.452-.421.667-.643.127-.131-.089.065-.1.074.067-.048.132-.1.2-.144q.176-.122.362-.23c.139-.082.3-.142.431-.228.159-.1-.122.045-.127.048a1.263,1.263,0,0,1,.227-.087c.131-.047.7-.293.822-.216-.005,0-.433.034-.087.012.082-.005.163-.013.245-.017.166-.007.331,0,.5.006a1.706,1.706,0,0,0,1.694-1.694,1.732,1.732,0,0,0-1.694-1.694Z" transform="translate(-103.321 -175.451)" fill="#45c676"/>
    <path id="Path_10520" data-name="Path 10520" d="M177.847,228.141a7.5,7.5,0,0,0-6.928,4.525,6.748,6.748,0,0,0,1.553,8.016,8.023,8.023,0,0,0,7.6,1.544,6.781,6.781,0,0,0,4.545-6.374,7.577,7.577,0,0,0-4.72-7.307,1.7,1.7,0,0,0-2.084,1.183A1.743,1.743,0,0,0,179,231.811c.3.114-.27-.145.006.005.113.062.229.118.34.184.095.056.185.117.277.178.316.206-.154-.152.048.034.175.161.349.318.508.5.06.067.3.254.113.123-.14-.1-.054-.076,0,0,.041.061.084.12.125.181a6.047,6.047,0,0,1,.36.622c.025.05.048.1.073.15.047.092.116.117,0,0s-.039-.1,0,0c.025.07.052.139.077.209a6.526,6.526,0,0,1,.2.7c.025.109.045.219.066.329.076.389-.011-.242.007.047.015.241.033.48.029.722q0,.166-.014.332c0,.055-.01.11-.014.165-.018.266-.018-.1.019-.122a3.128,3.128,0,0,0-.153.7c-.03.105-.066.208-.1.313-.118.364.111-.2-.015.05a6.2,6.2,0,0,1-.346.621c-.055.084-.263.273-.093.141s-.1.1-.157.167q-.116.122-.24.236a1.921,1.921,0,0,1-.168.146c-.011-.005.283-.2.125-.1-.2.128-.392.266-.6.378-.025.013-.3.139-.295.143-.012-.046.349-.127.1-.047-.052.017-.1.037-.155.055a5.536,5.536,0,0,1-.688.183c-.053.011-.11.016-.162.03-.175.045.167-.027.178-.021a1.477,1.477,0,0,0-.386.034,6.307,6.307,0,0,1-.722,0l-.167-.012c-.129-.008-.224-.1-.052,0,.133.078.122.021,0,0l-.165-.029a6.572,6.572,0,0,1-.7-.173c-.125-.038-.247-.082-.37-.125a.975.975,0,0,1-.156-.06c0-.014.317.152.149.061-.212-.114-.431-.21-.637-.334-.11-.067-.216-.139-.323-.21a1.042,1.042,0,0,1-.134-.1c0-.014.263.226.127.1-.172-.164-.356-.311-.519-.485-.037-.04-.073-.082-.11-.122l-.036-.041q-.138-.168-.005,0c.09.026.086.125,0,0-.03-.046-.063-.09-.093-.136a3.542,3.542,0,0,1-.35-.625c.008-.006.147.408.041.1-.02-.059-.043-.117-.062-.176q-.058-.176-.1-.356c-.029-.119-.044-.241-.074-.36-.05-.2.029.157.02.149-.028-.028-.016-.2-.018-.242-.014-.266.017-.524.021-.788,0-.2-.017.16-.021.149a.574.574,0,0,1,.032-.18c.031-.139.059-.279.1-.416q.064-.237.149-.468c.021-.058.046-.114.066-.172.071-.213-.141.257-.024.065.161-.264.281-.55.452-.81.041-.062.287-.406.156-.232s.134-.155.184-.211c.208-.231.452-.421.667-.643.127-.131-.089.065-.1.074.067-.048.132-.1.2-.144q.176-.122.362-.23c.139-.082.3-.142.431-.228.159-.1-.122.045-.127.048a1.263,1.263,0,0,1,.227-.087c.131-.047.7-.293.822-.216-.005,0-.433.034-.087.012.082-.005.163-.013.245-.017.166-.007.331,0,.5.006a1.706,1.706,0,0,0,1.694-1.694,1.732,1.732,0,0,0-1.694-1.694Z" transform="translate(-136.155 -161.542)" fill="#45c676"/>
    <path id="Path_10517" data-name="Path 10517" d="M177.847,228.141a7.5,7.5,0,0,0-6.928,4.525,6.748,6.748,0,0,0,1.553,8.016,8.023,8.023,0,0,0,7.6,1.544,6.781,6.781,0,0,0,4.545-6.374,7.577,7.577,0,0,0-4.72-7.307,1.7,1.7,0,0,0-2.084,1.183A1.743,1.743,0,0,0,179,231.811c.3.114-.27-.145.006.005.113.062.229.118.34.184.095.056.185.117.277.178.316.206-.154-.152.048.034.175.161.349.318.508.5.06.067.3.254.113.123-.14-.1-.054-.076,0,0,.041.061.084.12.125.181a6.047,6.047,0,0,1,.36.622c.025.05.048.1.073.15.047.092.116.117,0,0s-.039-.1,0,0c.025.07.052.139.077.209a6.526,6.526,0,0,1,.2.7c.025.109.045.219.066.329.076.389-.011-.242.007.047.015.241.033.48.029.722q0,.166-.014.332c0,.055-.01.11-.014.165-.018.266-.018-.1.019-.122a3.128,3.128,0,0,0-.153.7c-.03.105-.066.208-.1.313-.118.364.111-.2-.015.05a6.2,6.2,0,0,1-.346.621c-.055.084-.263.273-.093.141s-.1.1-.157.167q-.116.122-.24.236a1.921,1.921,0,0,1-.168.146c-.011-.005.283-.2.125-.1-.2.128-.392.266-.6.378-.025.013-.3.139-.295.143-.012-.046.349-.127.1-.047-.052.017-.1.037-.155.055a5.536,5.536,0,0,1-.688.183c-.053.011-.11.016-.162.03-.175.045.167-.027.178-.021a1.477,1.477,0,0,0-.386.034,6.307,6.307,0,0,1-.722,0l-.167-.012c-.129-.008-.224-.1-.052,0,.133.078.122.021,0,0l-.165-.029a6.572,6.572,0,0,1-.7-.173c-.125-.038-.247-.082-.37-.125a.975.975,0,0,1-.156-.06c0-.014.317.152.149.061-.212-.114-.431-.21-.637-.334-.11-.067-.216-.139-.323-.21a1.042,1.042,0,0,1-.134-.1c0-.014.263.226.127.1-.172-.164-.356-.311-.519-.485-.037-.04-.073-.082-.11-.122l-.036-.041q-.138-.168-.005,0c.09.026.086.125,0,0-.03-.046-.063-.09-.093-.136a3.542,3.542,0,0,1-.35-.625c.008-.006.147.408.041.1-.02-.059-.043-.117-.062-.176q-.058-.176-.1-.356c-.029-.119-.044-.241-.074-.36-.05-.2.029.157.02.149-.028-.028-.016-.2-.018-.242-.014-.266.017-.524.021-.788,0-.2-.017.16-.021.149a.574.574,0,0,1,.032-.18c.031-.139.059-.279.1-.416q.064-.237.149-.468c.021-.058.046-.114.066-.172.071-.213-.141.257-.024.065.161-.264.281-.55.452-.81.041-.062.287-.406.156-.232s.134-.155.184-.211c.208-.231.452-.421.667-.643.127-.131-.089.065-.1.074.067-.048.132-.1.2-.144q.176-.122.362-.23c.139-.082.3-.142.431-.228.159-.1-.122.045-.127.048a1.263,1.263,0,0,1,.227-.087c.131-.047.7-.293.822-.216-.005,0-.433.034-.087.012.082-.005.163-.013.245-.017.166-.007.331,0,.5.006a1.706,1.706,0,0,0,1.694-1.694,1.732,1.732,0,0,0-1.694-1.694Z" transform="translate(-170.222 -149.923)" fill="#45c676"/>
    <path id="Path_10514" data-name="Path 10514" d="M177.847,228.141a7.5,7.5,0,0,0-6.928,4.525,6.748,6.748,0,0,0,1.553,8.016,8.023,8.023,0,0,0,7.6,1.544,6.781,6.781,0,0,0,4.545-6.374,7.577,7.577,0,0,0-4.72-7.307,1.7,1.7,0,0,0-2.084,1.183A1.743,1.743,0,0,0,179,231.811c.3.114-.27-.145.006.005.113.062.229.118.34.184.095.056.185.117.277.178.316.206-.154-.152.048.034.175.161.349.318.508.5.06.067.3.254.113.123-.14-.1-.054-.076,0,0,.041.061.084.12.125.181a6.047,6.047,0,0,1,.36.622c.025.05.048.1.073.15.047.092.116.117,0,0s-.039-.1,0,0c.025.07.052.139.077.209a6.526,6.526,0,0,1,.2.7c.025.109.045.219.066.329.076.389-.011-.242.007.047.015.241.033.48.029.722q0,.166-.014.332c0,.055-.01.11-.014.165-.018.266-.018-.1.019-.122a3.128,3.128,0,0,0-.153.7c-.03.105-.066.208-.1.313-.118.364.111-.2-.015.05a6.2,6.2,0,0,1-.346.621c-.055.084-.263.273-.093.141s-.1.1-.157.167q-.116.122-.24.236a1.921,1.921,0,0,1-.168.146c-.011-.005.283-.2.125-.1-.2.128-.392.266-.6.378-.025.013-.3.139-.295.143-.012-.046.349-.127.1-.047-.052.017-.1.037-.155.055a5.536,5.536,0,0,1-.688.183c-.053.011-.11.016-.162.03-.175.045.167-.027.178-.021a1.477,1.477,0,0,0-.386.034,6.307,6.307,0,0,1-.722,0l-.167-.012c-.129-.008-.224-.1-.052,0,.133.078.122.021,0,0l-.165-.029a6.572,6.572,0,0,1-.7-.173c-.125-.038-.247-.082-.37-.125a.975.975,0,0,1-.156-.06c0-.014.317.152.149.061-.212-.114-.431-.21-.637-.334-.11-.067-.216-.139-.323-.21a1.042,1.042,0,0,1-.134-.1c0-.014.263.226.127.1-.172-.164-.356-.311-.519-.485-.037-.04-.073-.082-.11-.122l-.036-.041q-.138-.168-.005,0c.09.026.086.125,0,0-.03-.046-.063-.09-.093-.136a3.542,3.542,0,0,1-.35-.625c.008-.006.147.408.041.1-.02-.059-.043-.117-.062-.176q-.058-.176-.1-.356c-.029-.119-.044-.241-.074-.36-.05-.2.029.157.02.149-.028-.028-.016-.2-.018-.242-.014-.266.017-.524.021-.788,0-.2-.017.16-.021.149a.574.574,0,0,1,.032-.18c.031-.139.059-.279.1-.416q.064-.237.149-.468c.021-.058.046-.114.066-.172.071-.213-.141.257-.024.065.161-.264.281-.55.452-.81.041-.062.287-.406.156-.232s.134-.155.184-.211c.208-.231.452-.421.667-.643.127-.131-.089.065-.1.074.067-.048.132-.1.2-.144q.176-.122.362-.23c.139-.082.3-.142.431-.228.159-.1-.122.045-.127.048a1.263,1.263,0,0,1,.227-.087c.131-.047.7-.293.822-.216-.005,0-.433.034-.087.012.082-.005.163-.013.245-.017.166-.007.331,0,.5.006a1.706,1.706,0,0,0,1.694-1.694,1.732,1.732,0,0,0-1.694-1.694Z" transform="translate(-170.222 -228.141)" fill="#45c676"/>
    <path id="Path_10515" data-name="Path 10515" d="M177.847,228.141a7.5,7.5,0,0,0-6.928,4.525,6.748,6.748,0,0,0,1.553,8.016,8.023,8.023,0,0,0,7.6,1.544,6.781,6.781,0,0,0,4.545-6.374,7.577,7.577,0,0,0-4.72-7.307,1.7,1.7,0,0,0-2.084,1.183A1.743,1.743,0,0,0,179,231.811c.3.114-.27-.145.006.005.113.062.229.118.34.184.095.056.185.117.277.178.316.206-.154-.152.048.034.175.161.349.318.508.5.06.067.3.254.113.123-.14-.1-.054-.076,0,0,.041.061.084.12.125.181a6.047,6.047,0,0,1,.36.622c.025.05.048.1.073.15.047.092.116.117,0,0s-.039-.1,0,0c.025.07.052.139.077.209a6.526,6.526,0,0,1,.2.7c.025.109.045.219.066.329.076.389-.011-.242.007.047.015.241.033.48.029.722q0,.166-.014.332c0,.055-.01.11-.014.165-.018.266-.018-.1.019-.122a3.128,3.128,0,0,0-.153.7c-.03.105-.066.208-.1.313-.118.364.111-.2-.015.05a6.2,6.2,0,0,1-.346.621c-.055.084-.263.273-.093.141s-.1.1-.157.167q-.116.122-.24.236a1.921,1.921,0,0,1-.168.146c-.011-.005.283-.2.125-.1-.2.128-.392.266-.6.378-.025.013-.3.139-.295.143-.012-.046.349-.127.1-.047-.052.017-.1.037-.155.055a5.536,5.536,0,0,1-.688.183c-.053.011-.11.016-.162.03-.175.045.167-.027.178-.021a1.477,1.477,0,0,0-.386.034,6.307,6.307,0,0,1-.722,0l-.167-.012c-.129-.008-.224-.1-.052,0,.133.078.122.021,0,0l-.165-.029a6.572,6.572,0,0,1-.7-.173c-.125-.038-.247-.082-.37-.125a.975.975,0,0,1-.156-.06c0-.014.317.152.149.061-.212-.114-.431-.21-.637-.334-.11-.067-.216-.139-.323-.21a1.042,1.042,0,0,1-.134-.1c0-.014.263.226.127.1-.172-.164-.356-.311-.519-.485-.037-.04-.073-.082-.11-.122l-.036-.041q-.138-.168-.005,0c.09.026.086.125,0,0-.03-.046-.063-.09-.093-.136a3.542,3.542,0,0,1-.35-.625c.008-.006.147.408.041.1-.02-.059-.043-.117-.062-.176q-.058-.176-.1-.356c-.029-.119-.044-.241-.074-.36-.05-.2.029.157.02.149-.028-.028-.016-.2-.018-.242-.014-.266.017-.524.021-.788,0-.2-.017.16-.021.149a.574.574,0,0,1,.032-.18c.031-.139.059-.279.1-.416q.064-.237.149-.468c.021-.058.046-.114.066-.172.071-.213-.141.257-.024.065.161-.264.281-.55.452-.81.041-.062.287-.406.156-.232s.134-.155.184-.211c.208-.231.452-.421.667-.643.127-.131-.089.065-.1.074.067-.048.132-.1.2-.144q.176-.122.362-.23c.139-.082.3-.142.431-.228.159-.1-.122.045-.127.048a1.263,1.263,0,0,1,.227-.087c.131-.047.7-.293.822-.216-.005,0-.433.034-.087.012.082-.005.163-.013.245-.017.166-.007.331,0,.5.006a1.706,1.706,0,0,0,1.694-1.694,1.732,1.732,0,0,0-1.694-1.694Z" transform="translate(-170.222 -202.068)" fill="#45c676"/>
    <path id="Path_10516" data-name="Path 10516" d="M177.847,228.141a7.5,7.5,0,0,0-6.928,4.525,6.748,6.748,0,0,0,1.553,8.016,8.023,8.023,0,0,0,7.6,1.544,6.781,6.781,0,0,0,4.545-6.374,7.577,7.577,0,0,0-4.72-7.307,1.7,1.7,0,0,0-2.084,1.183A1.743,1.743,0,0,0,179,231.811c.3.114-.27-.145.006.005.113.062.229.118.34.184.095.056.185.117.277.178.316.206-.154-.152.048.034.175.161.349.318.508.5.06.067.3.254.113.123-.14-.1-.054-.076,0,0,.041.061.084.12.125.181a6.047,6.047,0,0,1,.36.622c.025.05.048.1.073.15.047.092.116.117,0,0s-.039-.1,0,0c.025.07.052.139.077.209a6.526,6.526,0,0,1,.2.7c.025.109.045.219.066.329.076.389-.011-.242.007.047.015.241.033.48.029.722q0,.166-.014.332c0,.055-.01.11-.014.165-.018.266-.018-.1.019-.122a3.128,3.128,0,0,0-.153.7c-.03.105-.066.208-.1.313-.118.364.111-.2-.015.05a6.2,6.2,0,0,1-.346.621c-.055.084-.263.273-.093.141s-.1.1-.157.167q-.116.122-.24.236a1.921,1.921,0,0,1-.168.146c-.011-.005.283-.2.125-.1-.2.128-.392.266-.6.378-.025.013-.3.139-.295.143-.012-.046.349-.127.1-.047-.052.017-.1.037-.155.055a5.536,5.536,0,0,1-.688.183c-.053.011-.11.016-.162.03-.175.045.167-.027.178-.021a1.477,1.477,0,0,0-.386.034,6.307,6.307,0,0,1-.722,0l-.167-.012c-.129-.008-.224-.1-.052,0,.133.078.122.021,0,0l-.165-.029a6.572,6.572,0,0,1-.7-.173c-.125-.038-.247-.082-.37-.125a.975.975,0,0,1-.156-.06c0-.014.317.152.149.061-.212-.114-.431-.21-.637-.334-.11-.067-.216-.139-.323-.21a1.042,1.042,0,0,1-.134-.1c0-.014.263.226.127.1-.172-.164-.356-.311-.519-.485-.037-.04-.073-.082-.11-.122l-.036-.041q-.138-.168-.005,0c.09.026.086.125,0,0-.03-.046-.063-.09-.093-.136a3.542,3.542,0,0,1-.35-.625c.008-.006.147.408.041.1-.02-.059-.043-.117-.062-.176q-.058-.176-.1-.356c-.029-.119-.044-.241-.074-.36-.05-.2.029.157.02.149-.028-.028-.016-.2-.018-.242-.014-.266.017-.524.021-.788,0-.2-.017.16-.021.149a.574.574,0,0,1,.032-.18c.031-.139.059-.279.1-.416q.064-.237.149-.468c.021-.058.046-.114.066-.172.071-.213-.141.257-.024.065.161-.264.281-.55.452-.81.041-.062.287-.406.156-.232s.134-.155.184-.211c.208-.231.452-.421.667-.643.127-.131-.089.065-.1.074.067-.048.132-.1.2-.144q.176-.122.362-.23c.139-.082.3-.142.431-.228.159-.1-.122.045-.127.048a1.263,1.263,0,0,1,.227-.087c.131-.047.7-.293.822-.216-.005,0-.433.034-.087.012.082-.005.163-.013.245-.017.166-.007.331,0,.5.006a1.706,1.706,0,0,0,1.694-1.694,1.732,1.732,0,0,0-1.694-1.694Z" transform="translate(-170.222 -175.995)" fill="#45c676"/>
  </g>
  <g id="Group_870" data-name="Group 870" transform="translate(144.946 22.771)">
    <path id="Path_10528" data-name="Path 10528" d="M1.452,3.017l18.879-.956c1.929-.1,1.944-2.156,0-2.057L1.452.959C-.476,1.057-.492,3.115,1.452,3.017Z" transform="translate(1.364 0) rotate(3)" fill="#45c676"/>
    <path id="Path_10529" data-name="Path 10529" d="M.988,3.017l12.845-.956c1.312-.1,1.323-2.156,0-2.057L.988.959C-.324,1.057-.335,3.115.988,3.017Z" transform="translate(0 15.96) rotate(-85)" fill="#45c676"/>
    <path id="Path_10530" data-name="Path 10530" d="M.988,3.017l12.845-.956c1.312-.1,1.323-2.156,0-2.057L.988.959C-.324,1.057-.335,3.115.988,3.017Z" transform="matrix(0.087, -0.996, 0.996, 0.087, 19.858, 15.959)" fill="#45c676"/>
  </g>
  <g id="Group_876" data-name="Group 876" transform="translate(169.104 68.047) rotate(179)">
    <path id="Path_10528-2" data-name="Path 10528" d="M1.452,3.017l18.879-.956c1.929-.1,1.944-2.156,0-2.057L1.452.959C-.476,1.057-.492,3.115,1.452,3.017Z" transform="translate(1.364 0) rotate(3)" fill="#45c676"/>
    <path id="Path_10529-2" data-name="Path 10529" d="M.988,3.017l12.845-.956c1.312-.1,1.323-2.156,0-2.057L.988.959C-.324,1.057-.335,3.115.988,3.017Z" transform="translate(0 15.96) rotate(-85)" fill="#45c676"/>
    <path id="Path_10530-2" data-name="Path 10530" d="M.988,3.017l12.845-.956c1.312-.1,1.323-2.156,0-2.057L.988.959C-.324,1.057-.335,3.115.988,3.017Z" transform="matrix(0.087, -0.996, 0.996, 0.087, 19.858, 15.959)" fill="#45c676"/>
  </g>
  <path id="Path_10523" data-name="Path 10523" d="M1.807,3.017,25.29,2.061c2.4-.1,2.418-2.156,0-2.057L1.807.959C-.592,1.057-.612,3.115,1.807,3.017Z" transform="matrix(0.996, 0.087, -0.087, 0.996, 95.559, 44.934)" fill="#45c676"/>
  <path id="Path_10533" data-name="Path 10533" d="M1.758,3.017l22.851-.956c2.334-.1,2.353-2.156,0-2.057L1.758.959C-.577,1.057-.6,3.115,1.758,3.017Z" transform="matrix(0.829, 0.559, -0.559, 0.829, 14.043, 6.943)" fill="#45c676"/>
  <path id="Path_10541" data-name="Path 10541" d="M1.758,3.017l22.851-.956c2.334-.1,2.353-2.156,0-2.057L1.758.959C-.577,1.057-.6,3.115,1.758,3.017Z" transform="translate(46.395 20.348) rotate(25)" fill="#45c676"/>
  <path id="Path_10543" data-name="Path 10543" d="M1.758,3.017l22.851-.956c2.334-.1,2.353-2.156,0-2.057L1.758.959C-.577,1.057-.6,3.115,1.758,3.017Z" transform="translate(45.811 42.884) rotate(-24)" fill="#45c676"/>
  <path id="Path_10546" data-name="Path 10546" d="M2.858,3.017l37.155-.956c3.8-.1,3.826-2.156,0-2.057L2.858.959C-.937,1.057-.968,3.115,2.858,3.017Z" transform="translate(44.094 69.954) rotate(-50)" fill="#45c676"/>
  <path id="Path_10545" data-name="Path 10545" d="M1.758,3.017l22.851-.956c2.334-.1,2.353-2.156,0-2.057L1.758.959C-.577,1.057-.6,3.115,1.758,3.017Z" transform="translate(45.047 72.045) rotate(-24)" fill="#45c676"/>
  <path id="Path_10544" data-name="Path 10544" d="M1.62,3.017l21.065-.956c2.152-.1,2.169-2.156,0-2.057L1.62.959C-.531,1.057-.549,3.115,1.62,3.017Z" transform="translate(47.23 48.154) rotate(25)" fill="#45c676"/>
  <path id="Path_10542" data-name="Path 10542" d="M2.8,3.017l36.362-.956c3.715-.1,3.745-2.156,0-2.057L2.8.959C-.917,1.057-.947,3.115,2.8,3.017Z" transform="translate(46.441 22.418) rotate(51)" fill="#45c676"/>
  <path id="Path_10536" data-name="Path 10536" d="M1.758,3.017l22.851-.956c2.334-.1,2.353-2.156,0-2.057L1.758.959C-.577,1.057-.6,3.115,1.758,3.017Z" transform="matrix(0.829, 0.559, -0.559, 0.829, 14.043, 31.358)" fill="#45c676"/>
  <path id="Path_10538" data-name="Path 10538" d="M1.758,3.017l22.851-.956c2.334-.1,2.353-2.156,0-2.057L1.758.959C-.577,1.057-.6,3.115,1.758,3.017Z" transform="matrix(0.966, -0.259, 0.259, 0.966, 11.62, 29.242)" fill="#45c676"/>
  <path id="Path_10540" data-name="Path 10540" d="M2.842,3.017l36.943-.956c3.774-.1,3.8-2.156,0-2.057L2.842.959C-.932,1.057-.963,3.115,2.842,3.017Z" transform="translate(8.414 81.968) rotate(-45)" fill="#45c676"/>
  <path id="Path_10539" data-name="Path 10539" d="M1.758,3.017l22.851-.956c2.334-.1,2.353-2.156,0-2.057L1.758.959C-.577,1.057-.6,3.115,1.758,3.017Z" transform="matrix(0.966, -0.259, 0.259, 0.966, 11.62, 55.43)" fill="#45c676"/>
  <path id="Path_10537" data-name="Path 10537" d="M2.006,3.017l26.078-.956c2.664-.1,2.686-2.156,0-2.057L2.006.959C-.658,1.057-.679,3.115,2.006,3.017Z" transform="matrix(0.829, 0.559, -0.559, 0.829, 12.923, 57.101)" fill="#45c676"/>
  <path id="Path_10534" data-name="Path 10534" d="M4.4,3.017l57.167-.956c5.84-.1,5.887-2.156,0-2.057L4.4.959C-1.442,1.057-1.49,3.115,4.4,3.017Z" transform="matrix(0.454, 0.891, -0.891, 0.454, 10.5, 10.67)" fill="#45c676"/>
  <path id="Path_10535" data-name="Path 10535" d="M4.44,3.017l57.719-.956c5.9-.1,5.944-2.156,0-2.057L4.44.959C-1.456,1.057-1.5,3.115,4.44,3.017Z" transform="matrix(0.53, -0.848, 0.848, 0.53, 3.683, 81.724)" fill="#45c676"/>
  <path id="Path_10524" data-name="Path 10524" d="M.685,3.017l8.9-.956c.91-.1.917-2.156,0-2.057L.685.959C-.225,1.057-.232,3.115.685,3.017Z" transform="matrix(0.799, 0.602, -0.602, 0.799, 121.084, 41.703)" fill="#45c676"/>
  <g id="Group_866" data-name="Group 866" transform="translate(149.777 29.68)">
    <path id="Path_10526" data-name="Path 10526" d="M.958,4.22,13.414,2.883c1.272-.137,1.283-3.016,0-2.878L.958,1.342C-.314,1.479-.325,4.358.958,4.22Z" transform="matrix(0.799, 0.602, -0.602, 0.799, 3.017, 0)" fill="#45c676"/>
    <path id="Path_10527" data-name="Path 10527" d="M.958,4.22,13.414,2.883c1.272-.137,1.283-3.016,0-2.878L.958,1.342C-.314,1.479-.325,4.358.958,4.22Z" transform="translate(14.495 4.622) rotate(149)" fill="#45c676"/>
  </g>
  <g id="Group_867" data-name="Group 867" transform="translate(149.638 47.043)">
    <path id="Path_10526-2" data-name="Path 10526" d="M.958,4.22,13.414,2.883c1.272-.137,1.283-3.016,0-2.878L.958,1.342C-.314,1.479-.325,4.358.958,4.22Z" transform="matrix(0.799, 0.602, -0.602, 0.799, 3.017, 0)" fill="#45c676"/>
    <path id="Path_10527-2" data-name="Path 10527" d="M.958,4.22,13.414,2.883c1.272-.137,1.283-3.016,0-2.878L.958,1.342C-.314,1.479-.325,4.358.958,4.22Z" transform="translate(14.495 4.622) rotate(149)" fill="#45c676"/>
  </g>
  <path id="Path_10525" data-name="Path 10525" d="M.685,3.017l8.9-.956c.91-.1.917-2.156,0-2.057L.685.959C-.225,1.057-.232,3.115.685,3.017Z" transform="translate(119.266 52.638) rotate(-33)" fill="#45c676"/>
</svg>
