<svg xmlns="http://www.w3.org/2000/svg" width="275.702" height="151.087" viewBox="0 0 275.702 151.087">
  <g id="Group_1592" data-name="Group 1592" transform="translate(-35.69 -36.352)">
    <g id="Group_872" data-name="Group 872" transform="translate(35.69 36.352)">
      <g id="Group_869" data-name="Group 869" transform="translate(0 0)">
        <path id="Path_10518" data-name="Path 10518" d="M182.654,228.141a12.221,12.221,0,0,0-11.3,7.377,11,11,0,0,0,2.532,13.068,13.08,13.08,0,0,0,12.392,2.518,11.055,11.055,0,0,0,7.41-10.392A12.353,12.353,0,0,0,186,228.8a2.774,2.774,0,0,0-3.4,1.929,2.841,2.841,0,0,0,1.929,3.4c.481.186-.44-.237.01.008.185.1.373.192.555.3.154.091.3.191.452.289.516.337-.252-.247.078.055.286.262.569.518.829.808.1.109.483.414.184.2-.229-.163-.088-.124,0,.006.067.1.138.2.2.3a9.856,9.856,0,0,1,.586,1.014c.041.081.078.163.119.244.077.151.189.19.008,0s-.063-.168,0,.006c.041.114.085.227.125.341a10.646,10.646,0,0,1,.326,1.137c.04.178.073.357.108.536.123.634-.018-.394.012.077.025.393.054.783.047,1.178q0,.271-.024.542c-.006.09-.016.18-.022.27-.029.434-.03-.158.031-.2a5.1,5.1,0,0,0-.25,1.136c-.05.172-.108.34-.163.51-.192.593.181-.323-.024.082a10.121,10.121,0,0,1-.564,1.012c-.09.137-.429.445-.152.231.3-.233-.158.168-.256.272q-.189.2-.392.384a3.136,3.136,0,0,1-.274.238c-.018-.009.462-.32.2-.155-.328.209-.639.433-.985.616-.04.021-.482.226-.481.233-.019-.075.569-.207.165-.077-.085.027-.168.06-.252.089a9.026,9.026,0,0,1-1.122.3c-.087.017-.179.026-.265.048-.286.074.273-.043.29-.034a2.408,2.408,0,0,0-.629.056,10.285,10.285,0,0,1-1.177,0c-.091-.005-.181-.014-.272-.019-.21-.012-.365-.164-.085,0,.216.127.2.034.007,0-.09-.017-.18-.031-.269-.047a10.711,10.711,0,0,1-1.149-.281c-.2-.062-.4-.134-.6-.2a1.592,1.592,0,0,1-.254-.1c0-.023.517.247.243.1-.345-.186-.7-.342-1.039-.545-.18-.108-.353-.226-.527-.343a1.7,1.7,0,0,1-.219-.157c.006-.023.428.368.207.157-.281-.267-.581-.507-.846-.791-.061-.065-.118-.133-.179-.2l-.059-.067q-.225-.275-.008,0c.146.043.14.2,0,0-.049-.074-.1-.147-.152-.221a5.77,5.77,0,0,1-.571-1.02c.013-.01.239.665.067.155-.033-.1-.069-.191-.1-.287q-.1-.287-.168-.581c-.048-.194-.072-.394-.12-.587-.081-.325.047.257.033.242-.046-.046-.026-.328-.03-.4-.022-.433.027-.854.035-1.285.006-.334-.028.26-.035.243a.935.935,0,0,1,.052-.293c.05-.227.1-.454.158-.679q.105-.386.242-.762c.034-.094.076-.186.107-.281.116-.347-.23.419-.039.106.263-.43.459-.9.738-1.321.066-.1.468-.662.255-.379s.218-.253.3-.344c.339-.377.737-.687,1.088-1.048.208-.214-.145.105-.166.12.109-.078.215-.158.325-.234q.288-.2.589-.375c.227-.133.483-.232.7-.372.26-.166-.2.073-.207.078a2.058,2.058,0,0,1,.37-.141c.214-.076,1.144-.477,1.339-.352-.009-.006-.706.056-.142.02.133-.009.266-.022.4-.027.27-.011.539,0,.809.01a2.781,2.781,0,0,0,2.763-2.762,2.824,2.824,0,0,0-2.763-2.763Z" transform="translate(-114.68 -204.577)" fill="#45c676"/>
        <path id="Path_10521" data-name="Path 10521" d="M182.654,228.141a12.221,12.221,0,0,0-11.3,7.377,11,11,0,0,0,2.532,13.068,13.08,13.08,0,0,0,12.392,2.518,11.055,11.055,0,0,0,7.41-10.392A12.353,12.353,0,0,0,186,228.8a2.774,2.774,0,0,0-3.4,1.929,2.841,2.841,0,0,0,1.929,3.4c.481.186-.44-.237.01.008.185.1.373.192.555.3.154.091.3.191.452.289.516.337-.252-.247.078.055.286.262.569.518.829.808.1.109.483.414.184.2-.229-.163-.088-.124,0,.006.067.1.138.2.2.3a9.856,9.856,0,0,1,.586,1.014c.041.081.078.163.119.244.077.151.189.19.008,0s-.063-.168,0,.006c.041.114.085.227.125.341a10.646,10.646,0,0,1,.326,1.137c.04.178.073.357.108.536.123.634-.018-.394.012.077.025.393.054.783.047,1.178q0,.271-.024.542c-.006.09-.016.18-.022.27-.029.434-.03-.158.031-.2a5.1,5.1,0,0,0-.25,1.136c-.05.172-.108.34-.163.51-.192.593.181-.323-.024.082a10.121,10.121,0,0,1-.564,1.012c-.09.137-.429.445-.152.231.3-.233-.158.168-.256.272q-.189.2-.392.384a3.136,3.136,0,0,1-.274.238c-.018-.009.462-.32.2-.155-.328.209-.639.433-.985.616-.04.021-.482.226-.481.233-.019-.075.569-.207.165-.077-.085.027-.168.06-.252.089a9.026,9.026,0,0,1-1.122.3c-.087.017-.179.026-.265.048-.286.074.273-.043.29-.034a2.408,2.408,0,0,0-.629.056,10.285,10.285,0,0,1-1.177,0c-.091-.005-.181-.014-.272-.019-.21-.012-.365-.164-.085,0,.216.127.2.034.007,0-.09-.017-.18-.031-.269-.047a10.711,10.711,0,0,1-1.149-.281c-.2-.062-.4-.134-.6-.2a1.592,1.592,0,0,1-.254-.1c0-.023.517.247.243.1-.345-.186-.7-.342-1.039-.545-.18-.108-.353-.226-.527-.343a1.7,1.7,0,0,1-.219-.157c.006-.023.428.368.207.157-.281-.267-.581-.507-.846-.791-.061-.065-.118-.133-.179-.2l-.059-.067q-.225-.275-.008,0c.146.043.14.2,0,0-.049-.074-.1-.147-.152-.221a5.77,5.77,0,0,1-.571-1.02c.013-.01.239.665.067.155-.033-.1-.069-.191-.1-.287q-.1-.287-.168-.581c-.048-.194-.072-.394-.12-.587-.081-.325.047.257.033.242-.046-.046-.026-.328-.03-.4-.022-.433.027-.854.035-1.285.006-.334-.028.26-.035.243a.935.935,0,0,1,.052-.293c.05-.227.1-.454.158-.679q.105-.386.242-.762c.034-.094.076-.186.107-.281.116-.347-.23.419-.039.106.263-.43.459-.9.738-1.321.066-.1.468-.662.255-.379s.218-.253.3-.344c.339-.377.737-.687,1.088-1.048.208-.214-.145.105-.166.12.109-.078.215-.158.325-.234q.288-.2.589-.375c.227-.133.483-.232.7-.372.26-.166-.2.073-.207.078a2.058,2.058,0,0,1,.37-.141c.214-.076,1.144-.477,1.339-.352-.009-.006-.706.056-.142.02.133-.009.266-.022.4-.027.27-.011.539,0,.809.01a2.781,2.781,0,0,0,2.763-2.762,2.824,2.824,0,0,0-2.763-2.763Z" transform="translate(-61.149 -184.745)" fill="#45c676"/>
        <path id="Path_10519" data-name="Path 10519" d="M182.654,228.141a12.221,12.221,0,0,0-11.3,7.377,11,11,0,0,0,2.532,13.068,13.08,13.08,0,0,0,12.392,2.518,11.055,11.055,0,0,0,7.41-10.392A12.353,12.353,0,0,0,186,228.8a2.774,2.774,0,0,0-3.4,1.929,2.841,2.841,0,0,0,1.929,3.4c.481.186-.44-.237.01.008.185.1.373.192.555.3.154.091.3.191.452.289.516.337-.252-.247.078.055.286.262.569.518.829.808.1.109.483.414.184.2-.229-.163-.088-.124,0,.006.067.1.138.2.2.3a9.856,9.856,0,0,1,.586,1.014c.041.081.078.163.119.244.077.151.189.19.008,0s-.063-.168,0,.006c.041.114.085.227.125.341a10.646,10.646,0,0,1,.326,1.137c.04.178.073.357.108.536.123.634-.018-.394.012.077.025.393.054.783.047,1.178q0,.271-.024.542c-.006.09-.016.18-.022.27-.029.434-.03-.158.031-.2a5.1,5.1,0,0,0-.25,1.136c-.05.172-.108.34-.163.51-.192.593.181-.323-.024.082a10.121,10.121,0,0,1-.564,1.012c-.09.137-.429.445-.152.231.3-.233-.158.168-.256.272q-.189.2-.392.384a3.136,3.136,0,0,1-.274.238c-.018-.009.462-.32.2-.155-.328.209-.639.433-.985.616-.04.021-.482.226-.481.233-.019-.075.569-.207.165-.077-.085.027-.168.06-.252.089a9.026,9.026,0,0,1-1.122.3c-.087.017-.179.026-.265.048-.286.074.273-.043.29-.034a2.408,2.408,0,0,0-.629.056,10.285,10.285,0,0,1-1.177,0c-.091-.005-.181-.014-.272-.019-.21-.012-.365-.164-.085,0,.216.127.2.034.007,0-.09-.017-.18-.031-.269-.047a10.711,10.711,0,0,1-1.149-.281c-.2-.062-.4-.134-.6-.2a1.592,1.592,0,0,1-.254-.1c0-.023.517.247.243.1-.345-.186-.7-.342-1.039-.545-.18-.108-.353-.226-.527-.343a1.7,1.7,0,0,1-.219-.157c.006-.023.428.368.207.157-.281-.267-.581-.507-.846-.791-.061-.065-.118-.133-.179-.2l-.059-.067q-.225-.275-.008,0c.146.043.14.2,0,0-.049-.074-.1-.147-.152-.221a5.77,5.77,0,0,1-.571-1.02c.013-.01.239.665.067.155-.033-.1-.069-.191-.1-.287q-.1-.287-.168-.581c-.048-.194-.072-.394-.12-.587-.081-.325.047.257.033.242-.046-.046-.026-.328-.03-.4-.022-.433.027-.854.035-1.285.006-.334-.028.26-.035.243a.935.935,0,0,1,.052-.293c.05-.227.1-.454.158-.679q.105-.386.242-.762c.034-.094.076-.186.107-.281.116-.347-.23.419-.039.106.263-.43.459-.9.738-1.321.066-.1.468-.662.255-.379s.218-.253.3-.344c.339-.377.737-.687,1.088-1.048.208-.214-.145.105-.166.12.109-.078.215-.158.325-.234q.288-.2.589-.375c.227-.133.483-.232.7-.372.26-.166-.2.073-.207.078a2.058,2.058,0,0,1,.37-.141c.214-.076,1.144-.477,1.339-.352-.009-.006-.706.056-.142.02.133-.009.266-.022.4-.027.27-.011.539,0,.809.01a2.781,2.781,0,0,0,2.763-2.762,2.824,2.824,0,0,0-2.763-2.763Z" transform="translate(-114.68 -162.069)" fill="#45c676"/>
        <path id="Path_10522" data-name="Path 10522" d="M182.654,228.141a12.221,12.221,0,0,0-11.3,7.377,11,11,0,0,0,2.532,13.068,13.08,13.08,0,0,0,12.392,2.518,11.055,11.055,0,0,0,7.41-10.392A12.353,12.353,0,0,0,186,228.8a2.774,2.774,0,0,0-3.4,1.929,2.841,2.841,0,0,0,1.929,3.4c.481.186-.44-.237.01.008.185.1.373.192.555.3.154.091.3.191.452.289.516.337-.252-.247.078.055.286.262.569.518.829.808.1.109.483.414.184.2-.229-.163-.088-.124,0,.006.067.1.138.2.2.3a9.856,9.856,0,0,1,.586,1.014c.041.081.078.163.119.244.077.151.189.19.008,0s-.063-.168,0,.006c.041.114.085.227.125.341a10.646,10.646,0,0,1,.326,1.137c.04.178.073.357.108.536.123.634-.018-.394.012.077.025.393.054.783.047,1.178q0,.271-.024.542c-.006.09-.016.18-.022.27-.029.434-.03-.158.031-.2a5.1,5.1,0,0,0-.25,1.136c-.05.172-.108.34-.163.51-.192.593.181-.323-.024.082a10.121,10.121,0,0,1-.564,1.012c-.09.137-.429.445-.152.231.3-.233-.158.168-.256.272q-.189.2-.392.384a3.136,3.136,0,0,1-.274.238c-.018-.009.462-.32.2-.155-.328.209-.639.433-.985.616-.04.021-.482.226-.481.233-.019-.075.569-.207.165-.077-.085.027-.168.06-.252.089a9.026,9.026,0,0,1-1.122.3c-.087.017-.179.026-.265.048-.286.074.273-.043.29-.034a2.408,2.408,0,0,0-.629.056,10.285,10.285,0,0,1-1.177,0c-.091-.005-.181-.014-.272-.019-.21-.012-.365-.164-.085,0,.216.127.2.034.007,0-.09-.017-.18-.031-.269-.047a10.711,10.711,0,0,1-1.149-.281c-.2-.062-.4-.134-.6-.2a1.592,1.592,0,0,1-.254-.1c0-.023.517.247.243.1-.345-.186-.7-.342-1.039-.545-.18-.108-.353-.226-.527-.343a1.7,1.7,0,0,1-.219-.157c.006-.023.428.368.207.157-.281-.267-.581-.507-.846-.791-.061-.065-.118-.133-.179-.2l-.059-.067q-.225-.275-.008,0c.146.043.14.2,0,0-.049-.074-.1-.147-.152-.221a5.77,5.77,0,0,1-.571-1.02c.013-.01.239.665.067.155-.033-.1-.069-.191-.1-.287q-.1-.287-.168-.581c-.048-.194-.072-.394-.12-.587-.081-.325.047.257.033.242-.046-.046-.026-.328-.03-.4-.022-.433.027-.854.035-1.285.006-.334-.028.26-.035.243a.935.935,0,0,1,.052-.293c.05-.227.1-.454.158-.679q.105-.386.242-.762c.034-.094.076-.186.107-.281.116-.347-.23.419-.039.106.263-.43.459-.9.738-1.321.066-.1.468-.662.255-.379s.218-.253.3-.344c.339-.377.737-.687,1.088-1.048.208-.214-.145.105-.166.12.109-.078.215-.158.325-.234q.288-.2.589-.375c.227-.133.483-.232.7-.372.26-.166-.2.073-.207.078a2.058,2.058,0,0,1,.37-.141c.214-.076,1.144-.477,1.339-.352-.009-.006-.706.056-.142.02.133-.009.266-.022.4-.027.27-.011.539,0,.809.01a2.781,2.781,0,0,0,2.763-2.762,2.824,2.824,0,0,0-2.763-2.763Z" transform="translate(-61.149 -142.237)" fill="#45c676"/>
        <path id="Path_10520" data-name="Path 10520" d="M182.654,228.141a12.221,12.221,0,0,0-11.3,7.377,11,11,0,0,0,2.532,13.068,13.08,13.08,0,0,0,12.392,2.518,11.055,11.055,0,0,0,7.41-10.392A12.353,12.353,0,0,0,186,228.8a2.774,2.774,0,0,0-3.4,1.929,2.841,2.841,0,0,0,1.929,3.4c.481.186-.44-.237.01.008.185.1.373.192.555.3.154.091.3.191.452.289.516.337-.252-.247.078.055.286.262.569.518.829.808.1.109.483.414.184.2-.229-.163-.088-.124,0,.006.067.1.138.2.2.3a9.856,9.856,0,0,1,.586,1.014c.041.081.078.163.119.244.077.151.189.19.008,0s-.063-.168,0,.006c.041.114.085.227.125.341a10.646,10.646,0,0,1,.326,1.137c.04.178.073.357.108.536.123.634-.018-.394.012.077.025.393.054.783.047,1.178q0,.271-.024.542c-.006.09-.016.18-.022.27-.029.434-.03-.158.031-.2a5.1,5.1,0,0,0-.25,1.136c-.05.172-.108.34-.163.51-.192.593.181-.323-.024.082a10.121,10.121,0,0,1-.564,1.012c-.09.137-.429.445-.152.231.3-.233-.158.168-.256.272q-.189.2-.392.384a3.136,3.136,0,0,1-.274.238c-.018-.009.462-.32.2-.155-.328.209-.639.433-.985.616-.04.021-.482.226-.481.233-.019-.075.569-.207.165-.077-.085.027-.168.06-.252.089a9.026,9.026,0,0,1-1.122.3c-.087.017-.179.026-.265.048-.286.074.273-.043.29-.034a2.408,2.408,0,0,0-.629.056,10.285,10.285,0,0,1-1.177,0c-.091-.005-.181-.014-.272-.019-.21-.012-.365-.164-.085,0,.216.127.2.034.007,0-.09-.017-.18-.031-.269-.047a10.711,10.711,0,0,1-1.149-.281c-.2-.062-.4-.134-.6-.2a1.592,1.592,0,0,1-.254-.1c0-.023.517.247.243.1-.345-.186-.7-.342-1.039-.545-.18-.108-.353-.226-.527-.343a1.7,1.7,0,0,1-.219-.157c.006-.023.428.368.207.157-.281-.267-.581-.507-.846-.791-.061-.065-.118-.133-.179-.2l-.059-.067q-.225-.275-.008,0c.146.043.14.2,0,0-.049-.074-.1-.147-.152-.221a5.77,5.77,0,0,1-.571-1.02c.013-.01.239.665.067.155-.033-.1-.069-.191-.1-.287q-.1-.287-.168-.581c-.048-.194-.072-.394-.12-.587-.081-.325.047.257.033.242-.046-.046-.026-.328-.03-.4-.022-.433.027-.854.035-1.285.006-.334-.028.26-.035.243a.935.935,0,0,1,.052-.293c.05-.227.1-.454.158-.679q.105-.386.242-.762c.034-.094.076-.186.107-.281.116-.347-.23.419-.039.106.263-.43.459-.9.738-1.321.066-.1.468-.662.255-.379s.218-.253.3-.344c.339-.377.737-.687,1.088-1.048.208-.214-.145.105-.166.12.109-.078.215-.158.325-.234q.288-.2.589-.375c.227-.133.483-.232.7-.372.26-.166-.2.073-.207.078a2.058,2.058,0,0,1,.37-.141c.214-.076,1.144-.477,1.339-.352-.009-.006-.706.056-.142.02.133-.009.266-.022.4-.027.27-.011.539,0,.809.01a2.781,2.781,0,0,0,2.763-2.762,2.824,2.824,0,0,0-2.763-2.763Z" transform="translate(-114.68 -119.561)" fill="#45c676"/>
        <path id="Path_10517" data-name="Path 10517" d="M182.654,228.141a12.221,12.221,0,0,0-11.3,7.377,11,11,0,0,0,2.532,13.068,13.08,13.08,0,0,0,12.392,2.518,11.055,11.055,0,0,0,7.41-10.392A12.353,12.353,0,0,0,186,228.8a2.774,2.774,0,0,0-3.4,1.929,2.841,2.841,0,0,0,1.929,3.4c.481.186-.44-.237.01.008.185.1.373.192.555.3.154.091.3.191.452.289.516.337-.252-.247.078.055.286.262.569.518.829.808.1.109.483.414.184.2-.229-.163-.088-.124,0,.006.067.1.138.2.2.3a9.856,9.856,0,0,1,.586,1.014c.041.081.078.163.119.244.077.151.189.19.008,0s-.063-.168,0,.006c.041.114.085.227.125.341a10.646,10.646,0,0,1,.326,1.137c.04.178.073.357.108.536.123.634-.018-.394.012.077.025.393.054.783.047,1.178q0,.271-.024.542c-.006.09-.016.18-.022.27-.029.434-.03-.158.031-.2a5.1,5.1,0,0,0-.25,1.136c-.05.172-.108.34-.163.51-.192.593.181-.323-.024.082a10.121,10.121,0,0,1-.564,1.012c-.09.137-.429.445-.152.231.3-.233-.158.168-.256.272q-.189.2-.392.384a3.136,3.136,0,0,1-.274.238c-.018-.009.462-.32.2-.155-.328.209-.639.433-.985.616-.04.021-.482.226-.481.233-.019-.075.569-.207.165-.077-.085.027-.168.06-.252.089a9.026,9.026,0,0,1-1.122.3c-.087.017-.179.026-.265.048-.286.074.273-.043.29-.034a2.408,2.408,0,0,0-.629.056,10.285,10.285,0,0,1-1.177,0c-.091-.005-.181-.014-.272-.019-.21-.012-.365-.164-.085,0,.216.127.2.034.007,0-.09-.017-.18-.031-.269-.047a10.711,10.711,0,0,1-1.149-.281c-.2-.062-.4-.134-.6-.2a1.592,1.592,0,0,1-.254-.1c0-.023.517.247.243.1-.345-.186-.7-.342-1.039-.545-.18-.108-.353-.226-.527-.343a1.7,1.7,0,0,1-.219-.157c.006-.023.428.368.207.157-.281-.267-.581-.507-.846-.791-.061-.065-.118-.133-.179-.2l-.059-.067q-.225-.275-.008,0c.146.043.14.2,0,0-.049-.074-.1-.147-.152-.221a5.77,5.77,0,0,1-.571-1.02c.013-.01.239.665.067.155-.033-.1-.069-.191-.1-.287q-.1-.287-.168-.581c-.048-.194-.072-.394-.12-.587-.081-.325.047.257.033.242-.046-.046-.026-.328-.03-.4-.022-.433.027-.854.035-1.285.006-.334-.028.26-.035.243a.935.935,0,0,1,.052-.293c.05-.227.1-.454.158-.679q.105-.386.242-.762c.034-.094.076-.186.107-.281.116-.347-.23.419-.039.106.263-.43.459-.9.738-1.321.066-.1.468-.662.255-.379s.218-.253.3-.344c.339-.377.737-.687,1.088-1.048.208-.214-.145.105-.166.12.109-.078.215-.158.325-.234q.288-.2.589-.375c.227-.133.483-.232.7-.372.26-.166-.2.073-.207.078a2.058,2.058,0,0,1,.37-.141c.214-.076,1.144-.477,1.339-.352-.009-.006-.706.056-.142.02.133-.009.266-.022.4-.027.27-.011.539,0,.809.01a2.781,2.781,0,0,0,2.763-2.762,2.824,2.824,0,0,0-2.763-2.763Z" transform="translate(-170.222 -100.617)" fill="#45c676"/>
        <path id="Path_10514" data-name="Path 10514" d="M182.654,228.141a12.221,12.221,0,0,0-11.3,7.377,11,11,0,0,0,2.532,13.068,13.08,13.08,0,0,0,12.392,2.518,11.055,11.055,0,0,0,7.41-10.392A12.353,12.353,0,0,0,186,228.8a2.774,2.774,0,0,0-3.4,1.929,2.841,2.841,0,0,0,1.929,3.4c.481.186-.44-.237.01.008.185.1.373.192.555.3.154.091.3.191.452.289.516.337-.252-.247.078.055.286.262.569.518.829.808.1.109.483.414.184.2-.229-.163-.088-.124,0,.006.067.1.138.2.2.3a9.856,9.856,0,0,1,.586,1.014c.041.081.078.163.119.244.077.151.189.19.008,0s-.063-.168,0,.006c.041.114.085.227.125.341a10.646,10.646,0,0,1,.326,1.137c.04.178.073.357.108.536.123.634-.018-.394.012.077.025.393.054.783.047,1.178q0,.271-.024.542c-.006.09-.016.18-.022.27-.029.434-.03-.158.031-.2a5.1,5.1,0,0,0-.25,1.136c-.05.172-.108.34-.163.51-.192.593.181-.323-.024.082a10.121,10.121,0,0,1-.564,1.012c-.09.137-.429.445-.152.231.3-.233-.158.168-.256.272q-.189.2-.392.384a3.136,3.136,0,0,1-.274.238c-.018-.009.462-.32.2-.155-.328.209-.639.433-.985.616-.04.021-.482.226-.481.233-.019-.075.569-.207.165-.077-.085.027-.168.06-.252.089a9.026,9.026,0,0,1-1.122.3c-.087.017-.179.026-.265.048-.286.074.273-.043.29-.034a2.408,2.408,0,0,0-.629.056,10.285,10.285,0,0,1-1.177,0c-.091-.005-.181-.014-.272-.019-.21-.012-.365-.164-.085,0,.216.127.2.034.007,0-.09-.017-.18-.031-.269-.047a10.711,10.711,0,0,1-1.149-.281c-.2-.062-.4-.134-.6-.2a1.592,1.592,0,0,1-.254-.1c0-.023.517.247.243.1-.345-.186-.7-.342-1.039-.545-.18-.108-.353-.226-.527-.343a1.7,1.7,0,0,1-.219-.157c.006-.023.428.368.207.157-.281-.267-.581-.507-.846-.791-.061-.065-.118-.133-.179-.2l-.059-.067q-.225-.275-.008,0c.146.043.14.2,0,0-.049-.074-.1-.147-.152-.221a5.77,5.77,0,0,1-.571-1.02c.013-.01.239.665.067.155-.033-.1-.069-.191-.1-.287q-.1-.287-.168-.581c-.048-.194-.072-.394-.12-.587-.081-.325.047.257.033.242-.046-.046-.026-.328-.03-.4-.022-.433.027-.854.035-1.285.006-.334-.028.26-.035.243a.935.935,0,0,1,.052-.293c.05-.227.1-.454.158-.679q.105-.386.242-.762c.034-.094.076-.186.107-.281.116-.347-.23.419-.039.106.263-.43.459-.9.738-1.321.066-.1.468-.662.255-.379s.218-.253.3-.344c.339-.377.737-.687,1.088-1.048.208-.214-.145.105-.166.12.109-.078.215-.158.325-.234q.288-.2.589-.375c.227-.133.483-.232.7-.372.26-.166-.2.073-.207.078a2.058,2.058,0,0,1,.37-.141c.214-.076,1.144-.477,1.339-.352-.009-.006-.706.056-.142.02.133-.009.266-.022.4-.027.27-.011.539,0,.809.01a2.781,2.781,0,0,0,2.763-2.762,2.824,2.824,0,0,0-2.763-2.763Z" transform="translate(-170.222 -228.141)" fill="#45c676"/>
        <path id="Path_10515" data-name="Path 10515" d="M182.654,228.141a12.221,12.221,0,0,0-11.3,7.377,11,11,0,0,0,2.532,13.068,13.08,13.08,0,0,0,12.392,2.518,11.055,11.055,0,0,0,7.41-10.392A12.353,12.353,0,0,0,186,228.8a2.774,2.774,0,0,0-3.4,1.929,2.841,2.841,0,0,0,1.929,3.4c.481.186-.44-.237.01.008.185.1.373.192.555.3.154.091.3.191.452.289.516.337-.252-.247.078.055.286.262.569.518.829.808.1.109.483.414.184.2-.229-.163-.088-.124,0,.006.067.1.138.2.2.3a9.856,9.856,0,0,1,.586,1.014c.041.081.078.163.119.244.077.151.189.19.008,0s-.063-.168,0,.006c.041.114.085.227.125.341a10.646,10.646,0,0,1,.326,1.137c.04.178.073.357.108.536.123.634-.018-.394.012.077.025.393.054.783.047,1.178q0,.271-.024.542c-.006.09-.016.18-.022.27-.029.434-.03-.158.031-.2a5.1,5.1,0,0,0-.25,1.136c-.05.172-.108.34-.163.51-.192.593.181-.323-.024.082a10.121,10.121,0,0,1-.564,1.012c-.09.137-.429.445-.152.231.3-.233-.158.168-.256.272q-.189.2-.392.384a3.136,3.136,0,0,1-.274.238c-.018-.009.462-.32.2-.155-.328.209-.639.433-.985.616-.04.021-.482.226-.481.233-.019-.075.569-.207.165-.077-.085.027-.168.06-.252.089a9.026,9.026,0,0,1-1.122.3c-.087.017-.179.026-.265.048-.286.074.273-.043.29-.034a2.408,2.408,0,0,0-.629.056,10.285,10.285,0,0,1-1.177,0c-.091-.005-.181-.014-.272-.019-.21-.012-.365-.164-.085,0,.216.127.2.034.007,0-.09-.017-.18-.031-.269-.047a10.711,10.711,0,0,1-1.149-.281c-.2-.062-.4-.134-.6-.2a1.592,1.592,0,0,1-.254-.1c0-.023.517.247.243.1-.345-.186-.7-.342-1.039-.545-.18-.108-.353-.226-.527-.343a1.7,1.7,0,0,1-.219-.157c.006-.023.428.368.207.157-.281-.267-.581-.507-.846-.791-.061-.065-.118-.133-.179-.2l-.059-.067q-.225-.275-.008,0c.146.043.14.2,0,0-.049-.074-.1-.147-.152-.221a5.77,5.77,0,0,1-.571-1.02c.013-.01.239.665.067.155-.033-.1-.069-.191-.1-.287q-.1-.287-.168-.581c-.048-.194-.072-.394-.12-.587-.081-.325.047.257.033.242-.046-.046-.026-.328-.03-.4-.022-.433.027-.854.035-1.285.006-.334-.028.26-.035.243a.935.935,0,0,1,.052-.293c.05-.227.1-.454.158-.679q.105-.386.242-.762c.034-.094.076-.186.107-.281.116-.347-.23.419-.039.106.263-.43.459-.9.738-1.321.066-.1.468-.662.255-.379s.218-.253.3-.344c.339-.377.737-.687,1.088-1.048.208-.214-.145.105-.166.12.109-.078.215-.158.325-.234q.288-.2.589-.375c.227-.133.483-.232.7-.372.26-.166-.2.073-.207.078a2.058,2.058,0,0,1,.37-.141c.214-.076,1.144-.477,1.339-.352-.009-.006-.706.056-.142.02.133-.009.266-.022.4-.027.27-.011.539,0,.809.01a2.781,2.781,0,0,0,2.763-2.762,2.824,2.824,0,0,0-2.763-2.763Z" transform="translate(-170.222 -185.632)" fill="#45c676"/>
        <path id="Path_10516" data-name="Path 10516" d="M182.654,228.141a12.221,12.221,0,0,0-11.3,7.377,11,11,0,0,0,2.532,13.068,13.08,13.08,0,0,0,12.392,2.518,11.055,11.055,0,0,0,7.41-10.392A12.353,12.353,0,0,0,186,228.8a2.774,2.774,0,0,0-3.4,1.929,2.841,2.841,0,0,0,1.929,3.4c.481.186-.44-.237.01.008.185.1.373.192.555.3.154.091.3.191.452.289.516.337-.252-.247.078.055.286.262.569.518.829.808.1.109.483.414.184.2-.229-.163-.088-.124,0,.006.067.1.138.2.2.3a9.856,9.856,0,0,1,.586,1.014c.041.081.078.163.119.244.077.151.189.19.008,0s-.063-.168,0,.006c.041.114.085.227.125.341a10.646,10.646,0,0,1,.326,1.137c.04.178.073.357.108.536.123.634-.018-.394.012.077.025.393.054.783.047,1.178q0,.271-.024.542c-.006.09-.016.18-.022.27-.029.434-.03-.158.031-.2a5.1,5.1,0,0,0-.25,1.136c-.05.172-.108.34-.163.51-.192.593.181-.323-.024.082a10.121,10.121,0,0,1-.564,1.012c-.09.137-.429.445-.152.231.3-.233-.158.168-.256.272q-.189.2-.392.384a3.136,3.136,0,0,1-.274.238c-.018-.009.462-.32.2-.155-.328.209-.639.433-.985.616-.04.021-.482.226-.481.233-.019-.075.569-.207.165-.077-.085.027-.168.06-.252.089a9.026,9.026,0,0,1-1.122.3c-.087.017-.179.026-.265.048-.286.074.273-.043.29-.034a2.408,2.408,0,0,0-.629.056,10.285,10.285,0,0,1-1.177,0c-.091-.005-.181-.014-.272-.019-.21-.012-.365-.164-.085,0,.216.127.2.034.007,0-.09-.017-.18-.031-.269-.047a10.711,10.711,0,0,1-1.149-.281c-.2-.062-.4-.134-.6-.2a1.592,1.592,0,0,1-.254-.1c0-.023.517.247.243.1-.345-.186-.7-.342-1.039-.545-.18-.108-.353-.226-.527-.343a1.7,1.7,0,0,1-.219-.157c.006-.023.428.368.207.157-.281-.267-.581-.507-.846-.791-.061-.065-.118-.133-.179-.2l-.059-.067q-.225-.275-.008,0c.146.043.14.2,0,0-.049-.074-.1-.147-.152-.221a5.77,5.77,0,0,1-.571-1.02c.013-.01.239.665.067.155-.033-.1-.069-.191-.1-.287q-.1-.287-.168-.581c-.048-.194-.072-.394-.12-.587-.081-.325.047.257.033.242-.046-.046-.026-.328-.03-.4-.022-.433.027-.854.035-1.285.006-.334-.028.26-.035.243a.935.935,0,0,1,.052-.293c.05-.227.1-.454.158-.679q.105-.386.242-.762c.034-.094.076-.186.107-.281.116-.347-.23.419-.039.106.263-.43.459-.9.738-1.321.066-.1.468-.662.255-.379s.218-.253.3-.344c.339-.377.737-.687,1.088-1.048.208-.214-.145.105-.166.12.109-.078.215-.158.325-.234q.288-.2.589-.375c.227-.133.483-.232.7-.372.26-.166-.2.073-.207.078a2.058,2.058,0,0,1,.37-.141c.214-.076,1.144-.477,1.339-.352-.009-.006-.706.056-.142.02.133-.009.266-.022.4-.027.27-.011.539,0,.809.01a2.781,2.781,0,0,0,2.763-2.762,2.824,2.824,0,0,0-2.763-2.763Z" transform="translate(-170.222 -143.125)" fill="#45c676"/>
      </g>
      <g id="Group_870" data-name="Group 870" transform="translate(236.315 37.125)">
        <path id="Path_10528" data-name="Path 10528" d="M2.368,4.918,33.147,3.36c3.144-.159,3.17-3.515,0-3.354L2.368,1.564C-.777,1.723-.8,5.079,2.368,4.918Z" transform="translate(2.223 0) rotate(3)" fill="#45c676"/>
        <path id="Path_10529" data-name="Path 10529" d="M1.611,4.918,22.554,3.36c2.139-.159,2.157-3.515,0-3.354L1.611,1.564C-.528,1.723-.546,5.079,1.611,4.918Z" transform="translate(0 26.02) rotate(-85)" fill="#45c676"/>
        <path id="Path_10530" data-name="Path 10530" d="M1.611,4.918,22.554,3.36c2.139-.159,2.157-3.515,0-3.354L1.611,1.564C-.528,1.723-.546,5.079,1.611,4.918Z" transform="matrix(0.087, -0.996, 0.996, 0.087, 32.376, 26.02)" fill="#45c676"/>
      </g>
      <g id="Group_876" data-name="Group 876" transform="translate(275.702 110.941) rotate(179)">
        <path id="Path_10528-2" data-name="Path 10528" d="M2.368,4.918,33.147,3.36c3.144-.159,3.17-3.515,0-3.354L2.368,1.564C-.777,1.723-.8,5.079,2.368,4.918Z" transform="translate(2.223 0) rotate(3)" fill="#45c676"/>
        <path id="Path_10529-2" data-name="Path 10529" d="M1.611,4.918,22.554,3.36c2.139-.159,2.157-3.515,0-3.354L1.611,1.564C-.528,1.723-.546,5.079,1.611,4.918Z" transform="translate(0 26.02) rotate(-85)" fill="#45c676"/>
        <path id="Path_10530-2" data-name="Path 10530" d="M1.611,4.918,22.554,3.36c2.139-.159,2.157-3.515,0-3.354L1.611,1.564C-.528,1.723-.546,5.079,1.611,4.918Z" transform="matrix(0.087, -0.996, 0.996, 0.087, 32.376, 26.02)" fill="#45c676"/>
      </g>
      <path id="Path_10523" data-name="Path 10523" d="M2.945,4.918,41.232,3.36c3.911-.159,3.943-3.515,0-3.354L2.945,1.564C-.966,1.723-1,5.079,2.945,4.918Z" transform="matrix(0.996, 0.087, -0.087, 0.996, 155.796, 73.26)" fill="#45c676"/>
      <path id="Path_10533" data-name="Path 10533" d="M2.866,4.918,40.122,3.36c3.806-.159,3.837-3.515,0-3.354L2.866,1.564C-.94,1.723-.971,5.079,2.866,4.918Z" transform="matrix(0.829, 0.559, -0.559, 0.829, 22.895, 11.319)" fill="#45c676"/>
      <path id="Path_10541" data-name="Path 10541" d="M2.866,4.918,40.122,3.36c3.806-.159,3.837-3.515,0-3.354L2.866,1.564C-.94,1.723-.971,5.079,2.866,4.918Z" transform="translate(75.641 33.175) rotate(25)" fill="#45c676"/>
      <path id="Path_10543" data-name="Path 10543" d="M2.866,4.918,40.122,3.36c3.806-.159,3.837-3.515,0-3.354L2.866,1.564C-.94,1.723-.971,5.079,2.866,4.918Z" transform="translate(74.689 69.916) rotate(-24)" fill="#45c676"/>
      <path id="Path_10546" data-name="Path 10546" d="M4.66,4.918,65.236,3.36c6.188-.159,6.238-3.515,0-3.354L4.66,1.564C-1.528,1.723-1.578,5.079,4.66,4.918Z" transform="translate(71.889 114.051) rotate(-50)" fill="#45c676"/>
      <path id="Path_10545" data-name="Path 10545" d="M2.866,4.918,40.122,3.36c3.806-.159,3.837-3.515,0-3.354L2.866,1.564C-.94,1.723-.971,5.079,2.866,4.918Z" transform="translate(73.444 117.459) rotate(-24)" fill="#45c676"/>
      <path id="Path_10544" data-name="Path 10544" d="M2.642,4.918,36.985,3.36c3.508-.159,3.537-3.515,0-3.354L2.642,1.564C-.866,1.723-.895,5.079,2.642,4.918Z" transform="translate(77.003 78.509) rotate(25)" fill="#45c676"/>
      <path id="Path_10542" data-name="Path 10542" d="M4.561,4.918,63.844,3.36c6.056-.159,6.105-3.515,0-3.354L4.561,1.564C-1.5,1.723-1.545,5.079,4.561,4.918Z" transform="translate(75.715 36.549) rotate(51)" fill="#45c676"/>
      <path id="Path_10536" data-name="Path 10536" d="M2.866,4.918,40.122,3.36c3.806-.159,3.837-3.515,0-3.354L2.866,1.564C-.94,1.723-.971,5.079,2.866,4.918Z" transform="matrix(0.829, 0.559, -0.559, 0.829, 22.895, 51.125)" fill="#45c676"/>
      <path id="Path_10538" data-name="Path 10538" d="M2.866,4.918,40.122,3.36c3.806-.159,3.837-3.515,0-3.354L2.866,1.564C-.94,1.723-.971,5.079,2.866,4.918Z" transform="matrix(0.966, -0.259, 0.259, 0.966, 18.944, 47.675)" fill="#45c676"/>
      <path id="Path_10540" data-name="Path 10540" d="M4.633,4.918,64.864,3.36c6.153-.159,6.2-3.515,0-3.354L4.633,1.564C-1.52,1.723-1.569,5.079,4.633,4.918Z" transform="translate(13.717 133.638) rotate(-45)" fill="#45c676"/>
      <path id="Path_10539" data-name="Path 10539" d="M2.866,4.918,40.122,3.36c3.806-.159,3.837-3.515,0-3.354L2.866,1.564C-.94,1.723-.971,5.079,2.866,4.918Z" transform="matrix(0.966, -0.259, 0.259, 0.966, 18.944, 90.372)" fill="#45c676"/>
      <path id="Path_10537" data-name="Path 10537" d="M3.271,4.918,45.788,3.36c4.343-.159,4.379-3.515,0-3.354L3.271,1.564C-1.073,1.723-1.108,5.079,3.271,4.918Z" transform="matrix(0.829, 0.559, -0.559, 0.829, 21.07, 93.095)" fill="#45c676"/>
      <path id="Path_10534" data-name="Path 10534" d="M7.17,4.918l93.2-1.559c9.521-.159,9.6-3.515,0-3.354L7.17,1.564C-2.351,1.724-2.428,5.079,7.17,4.918Z" transform="matrix(0.454, 0.891, -0.891, 0.454, 17.119, 17.396)" fill="#45c676"/>
      <path id="Path_10535" data-name="Path 10535" d="M7.239,4.918l94.1-1.559c9.613-.159,9.691-3.515,0-3.354L7.239,1.564C-2.374,1.723-2.452,5.079,7.239,4.918Z" transform="matrix(0.53, -0.848, 0.848, 0.53, 6.005, 133.24)" fill="#45c676"/>
      <path id="Path_10524" data-name="Path 10524" d="M1.117,4.918,15.632,3.36c1.483-.159,1.495-3.515,0-3.354L1.117,1.564C-.366,1.723-.378,5.079,1.117,4.918Z" transform="matrix(0.799, 0.602, -0.602, 0.799, 197.411, 67.992)" fill="#45c676"/>
      <g id="Group_866" data-name="Group 866" transform="translate(244.192 48.389)">
        <path id="Path_10526" data-name="Path 10526" d="M1.562,6.881,21.869,4.7c2.075-.223,2.091-4.917,0-4.692L1.562,2.188C-.512,2.411-.529,7.105,1.562,6.881Z" transform="matrix(0.799, 0.602, -0.602, 0.799, 4.919, 0)" fill="#45c676"/>
        <path id="Path_10527" data-name="Path 10527" d="M1.562,6.881,21.869,4.7c2.075-.223,2.091-4.917,0-4.692L1.562,2.188C-.512,2.411-.529,7.105,1.562,6.881Z" transform="translate(23.633 7.535) rotate(149)" fill="#45c676"/>
      </g>
      <g id="Group_867" data-name="Group 867" transform="translate(243.964 76.698)">
        <path id="Path_10526-2" data-name="Path 10526" d="M1.562,6.881,21.869,4.7c2.075-.223,2.091-4.917,0-4.692L1.562,2.188C-.512,2.411-.529,7.105,1.562,6.881Z" transform="matrix(0.799, 0.602, -0.602, 0.799, 4.919, 0)" fill="#45c676"/>
        <path id="Path_10527-2" data-name="Path 10527" d="M1.562,6.881,21.869,4.7c2.075-.223,2.091-4.917,0-4.692L1.562,2.188C-.512,2.411-.529,7.105,1.562,6.881Z" transform="translate(23.633 7.535) rotate(149)" fill="#45c676"/>
      </g>
      <path id="Path_10525" data-name="Path 10525" d="M1.117,4.918,15.632,3.36c1.483-.159,1.495-3.515,0-3.354L1.117,1.564C-.366,1.723-.378,5.079,1.117,4.918Z" transform="translate(194.448 85.82) rotate(-33)" fill="#45c676"/>
    </g>
  </g>
</svg>
