<?xml version="1.0" encoding="UTF-8" standalone="no"?>
<!-- Created with Inkscape (http://www.inkscape.org/) -->

<svg
   xmlns:dc="http://purl.org/dc/elements/1.1/"
   xmlns:cc="http://creativecommons.org/ns#"
   xmlns:rdf="http://www.w3.org/1999/02/22-rdf-syntax-ns#"
   xmlns:svg="http://www.w3.org/2000/svg"
   xmlns="http://www.w3.org/2000/svg"
   xmlns:sodipodi="http://sodipodi.sourceforge.net/DTD/sodipodi-0.dtd"
   xmlns:inkscape="http://www.inkscape.org/namespaces/inkscape"
   width="300"
   height="300"
   viewBox="0 0 79.374999 79.374999"
   version="1.1"
   id="svg8"
   inkscape:version="0.92.2 (5c3e80d, 2017-08-06)"
   sodipodi:docname="icon.svg"
   inkscape:export-filename="C:\Users\Martin\workspaces\dicarlo\brain-score.web\static\benchmarks\img\icon.png"
   inkscape:export-xdpi="96"
   inkscape:export-ydpi="96">
  <defs
     id="defs2" />
  <sodipodi:namedview
     id="base"
     pagecolor="#ffffff"
     bordercolor="#666666"
     borderopacity="1.0"
     inkscape:pageopacity="0.0"
     inkscape:pageshadow="2"
     inkscape:zoom="1.979899"
     inkscape:cx="-42.08426"
     inkscape:cy="169.59962"
     inkscape:document-units="mm"
     inkscape:current-layer="layer1"
     showgrid="false"
     units="px"
     inkscape:window-width="1920"
     inkscape:window-height="1017"
     inkscape:window-x="3832"
     inkscape:window-y="-8"
     inkscape:window-maximized="1"
     inkscape:pagecheckerboard="true" />
  <metadata
     id="metadata5">
    <rdf:RDF>
      <cc:Work
         rdf:about="">
        <dc:format>image/svg+xml</dc:format>
        <dc:type
           rdf:resource="http://purl.org/dc/dcmitype/StillImage" />
        <dc:title />
      </cc:Work>
    </rdf:RDF>
  </metadata>
  <g
     inkscape:label="Layer 1"
     inkscape:groupmode="layer"
     id="layer1"
     transform="translate(0,-217.62501)">
    <circle
       style="fill:#808080;fill-opacity:1;stroke:none;stroke-width:0.26458332;stroke-opacity:1"
       id="path22"
       cx="13.563929"
       cy="231.58041"
       r="12.22758" />
    <circle
       style="fill:#808080;fill-opacity:1;stroke:none;stroke-width:0.26458332;stroke-opacity:1"
       id="path22-6"
       cx="39.555889"
       cy="231.64723"
       r="12.22758" />
    <circle
       style="fill:#808080;fill-opacity:1;stroke:none;stroke-width:0.26458332;stroke-opacity:1"
       id="path22-3"
       cx="66.015572"
       cy="231.78087"
       r="12.22758" />
    <circle
       style="fill:#808080;fill-opacity:1;stroke:none;stroke-width:0.26458332;stroke-opacity:1"
       id="path22-4"
       cx="13.463707"
       cy="257.73944"
       r="12.22758" />
    <circle
       style="fill:#808080;fill-opacity:1;stroke:none;stroke-width:0.26458332;stroke-opacity:1"
       id="path22-6-5"
       cx="39.455666"
       cy="257.80624"
       r="12.22758" />
    <circle
       style="fill:#808080;fill-opacity:1;stroke:none;stroke-width:0.26458332;stroke-opacity:1"
       id="path22-3-6"
       cx="65.915344"
       cy="257.93988"
       r="12.22758" />
    <circle
       style="fill:#808080;fill-opacity:1;stroke:none;stroke-width:0.26458332;stroke-opacity:1"
       id="path22-8"
       cx="13.33007"
       cy="283.66458"
       r="12.22758" />
    <circle
       style="fill:#808080;fill-opacity:1;stroke:none;stroke-width:0.26458332;stroke-opacity:1"
       id="path22-6-1"
       cx="39.322033"
       cy="283.73138"
       r="12.22758" />
    <circle
       style="fill:#808080;fill-opacity:1;stroke:none;stroke-width:0.26458332;stroke-opacity:1"
       id="path22-3-5"
       cx="65.781708"
       cy="283.86502"
       r="12.22758" />
    <path
       style="fill:#800080;fill-opacity:1;stroke:none;stroke-width:0.50507629;stroke-opacity:1"
       d="M 45.532348,98.389101 C 25.859429,95.61153 10.258912,81.231276 6.3446167,62.266607 5.2968261,57.19009 5.1121858,49.64136 5.9237344,45.059491 9.0131871,27.616954 21.898223,13.327892 39.003127,8.3755821 42.516715,7.3583078 44.098933,7.2152964 51.607388,7.2363243 c 8.032243,0.022495 8.863321,0.1159503 12.879445,1.4483033 8.397752,2.7859644 14.080082,6.3375484 19.980696,12.4883914 19.709101,20.544893 15.975581,54.079907 -7.774482,69.831635 -8.915521,5.913029 -21.111608,8.803252 -31.160699,7.384447 z"
       id="path78"
       inkscape:connector-curvature="0"
       transform="matrix(0.26458333,0,0,0.26458333,0,217.62501)" />
    <path
       style="fill:#800080;fill-opacity:1;stroke:none;stroke-width:0.50507629;stroke-opacity:1"
       d="m 143.02619,98.590965 c -0.55558,-0.130466 -2.55698,-0.590672 -4.44755,-1.022678 -21.9942,-5.025807 -37.46747,-27.128061 -34.73314,-49.613318 2.3401,-19.24327 15.66892,-34.559689 34.41622,-39.5483808 5.68474,-1.5127178 15.52929,-1.6306748 21.39397,-0.2563419 18.12129,4.2465507 31.67214,18.5251877 35.1803,37.0697747 0.77545,4.099115 0.31647,15.528291 -0.78594,19.570952 -1.25195,4.591022 -5.39959,12.744544 -8.4964,16.702408 -5.80037,7.413115 -13.89549,12.827972 -23.4373,15.677299 -3.62838,1.083485 -5.69305,1.357049 -11.26147,1.492112 -3.7502,0.09096 -7.2731,0.05863 -7.82869,-0.07183 z"
       id="path80"
       inkscape:connector-curvature="0"
       transform="matrix(0.26458333,0,0,0.26458333,0,217.62501)" />
    <path
       style="fill:#800080;fill-opacity:1;stroke:none;stroke-width:0.50507629;stroke-opacity:1"
       d="m 243.0313,99.096041 c -0.55559,-0.130466 -2.55699,-0.590671 -4.44755,-1.022678 -21.99421,-5.025807 -37.46748,-27.128061 -34.73314,-49.613318 2.34009,-19.24327 15.66891,-34.559689 34.41622,-39.5483806 5.68473,-1.5127177 15.52928,-1.6306747 21.39396,-0.2563418 18.12129,4.2465514 31.67214,18.5251874 35.18031,37.0697744 0.77544,4.099115 0.31647,15.528291 -0.78595,19.570952 -1.25195,4.591022 -5.39959,12.744544 -8.4964,16.702408 -5.80036,7.413115 -13.89549,12.827972 -23.43729,15.6773 -3.62839,1.083484 -5.69306,1.357049 -11.26148,1.492111 -3.75019,0.09096 -7.2731,0.05863 -7.82868,-0.07183 z"
       id="path82"
       inkscape:connector-curvature="0"
       transform="matrix(0.26458333,0,0,0.26458333,0,217.62501)" />
    <path
       style="fill:#800080;fill-opacity:1;stroke:none;stroke-width:0.50507629;stroke-opacity:1"
       d="m 243.0313,198.05556 c -16.13904,-2.60812 -28.84927,-12.10919 -35.62943,-26.63348 -2.94484,-6.30835 -3.5804,-9.23495 -3.85199,-17.73768 -0.22056,-6.90478 -0.12984,-8.01065 1.02367,-12.47939 5.08818,-19.71172 21.936,-33.56109 42.09219,-34.60094 9.06305,-0.46755 16.04946,1.08241 24.24593,5.37907 11.41546,5.98408 19.4122,16.33772 22.94655,29.70966 1.31217,4.96449 1.46587,14.8451 0.31239,20.08116 -3.78,17.1587 -16.55525,30.55063 -33.47674,35.09269 -3.97705,1.06752 -14.16867,1.75354 -17.66257,1.18891 z"
       id="path84"
       inkscape:connector-curvature="0"
       transform="matrix(0.26458333,0,0,0.26458333,0,217.62501)" />
    <path
       style="fill:#800080;fill-opacity:1;stroke:none;stroke-width:0.50507629;stroke-opacity:1"
       d="m 143.02619,197.55049 c -16.13903,-2.60813 -28.84926,-12.1092 -35.62942,-26.63348 -2.94485,-6.30836 -3.5804,-9.23495 -3.85199,-17.73769 -0.22056,-6.90477 -0.12984,-8.01065 1.02367,-12.47939 5.08818,-19.71172 21.936,-33.56109 42.09219,-34.60093 9.06304,-0.46756 16.04946,1.08241 24.24593,5.37906 11.41546,5.98408 19.4122,16.33773 22.94655,29.70966 1.31216,4.96449 1.46587,14.8451 0.31238,20.08116 -3.77999,17.15871 -16.55524,30.55063 -33.47673,35.09269 -3.97705,1.06752 -14.16867,1.75355 -17.66258,1.18892 z"
       id="path86"
       inkscape:connector-curvature="0"
       transform="matrix(0.26458333,0,0,0.26458333,0,217.62501)" />
    <path
       style="fill:#800080;fill-opacity:1;stroke:none;stroke-width:0.50507629;stroke-opacity:1"
       d="M 41.000787,196.57319 C 36.943236,195.68138 30.831415,193.16674 26.779239,190.7219 17.133463,184.90223 9.3234245,174.33583 6.3098049,163.02831 4.837262,157.50312 4.7079668,146.53255 6.0518831,141.14391 9.9137263,125.65924 21.204187,113.26035 36.069991,108.17879 c 24.971601,-8.536017 51.191792,5.18263 59.038576,30.88953 1.25512,4.11192 1.37802,5.23528 1.37802,12.59577 0,7.3312 -0.125966,8.49357 -1.357271,12.52417 -4.751632,15.55416 -16.445521,27.25816 -31.66652,31.69391 -5.051,1.47198 -17.20734,1.84595 -22.462009,0.69102 z"
       id="path88"
       inkscape:connector-curvature="0"
       transform="matrix(0.26458333,0,0,0.26458333,0,217.62501)" />
    <path
       style="fill:#800080;fill-opacity:1;stroke:none;stroke-width:0.50507629;stroke-opacity:1"
       d="M 40.49571,294.55799 C 36.438159,293.66617 30.326338,291.15154 26.274163,288.7067 16.628387,282.88702 8.8183482,272.32063 5.8047286,261.0131 4.3321858,255.48791 4.2028905,244.51734 5.5468068,239.1287 9.40865,223.64404 20.699111,211.24515 35.564915,206.16359 c 24.971601,-8.53602 51.191792,5.18263 59.038576,30.88952 1.25512,4.11192 1.37802,5.23529 1.37802,12.59578 0,7.3312 -0.125966,8.49357 -1.357272,12.52417 -4.751631,15.55416 -16.44552,27.25816 -31.666519,31.6939 -5.051,1.47198 -17.207341,1.84596 -22.46201,0.69103 z"
       id="path90"
       inkscape:connector-curvature="0"
       transform="matrix(0.26458333,0,0,0.26458333,0,217.62501)" />
    <path
       style="fill:#800080;fill-opacity:1;stroke:none;stroke-width:0.50507629;stroke-opacity:1"
       d="m 142.52112,295.53529 c -16.13904,-2.60813 -28.84927,-12.1092 -35.62943,-26.63348 -2.94484,-6.30836 -3.58039,-9.23496 -3.85199,-17.73769 -0.22055,-6.90478 -0.12984,-8.01065 1.02367,-12.47939 5.08818,-19.71172 21.936,-33.56109 42.09219,-34.60094 9.06305,-0.46755 16.04947,1.08241 24.24593,5.37907 11.41547,5.98408 19.4122,16.33772 22.94655,29.70966 1.31217,4.96449 1.46588,14.8451 0.31239,20.08116 -3.78,17.15871 -16.55525,30.55063 -33.47673,35.09269 -3.97706,1.06752 -14.16868,1.75355 -17.66258,1.18892 z"
       id="path92"
       inkscape:connector-curvature="0"
       transform="matrix(0.26458333,0,0,0.26458333,0,217.62501)" />
    <path
       style="fill:#800080;fill-opacity:1;stroke:none;stroke-width:0.50507629;stroke-opacity:1"
       d="m 242.52622,296.04036 c -16.13904,-2.60813 -28.84927,-12.1092 -35.62943,-26.63348 -2.94484,-6.30836 -3.58039,-9.23495 -3.85199,-17.73769 -0.22055,-6.90477 -0.12984,-8.01065 1.02367,-12.47938 5.08818,-19.71173 21.936,-33.5611 42.09219,-34.60094 9.06305,-0.46756 16.04947,1.08241 24.24593,5.37906 11.41547,5.98409 19.4122,16.33773 22.94655,29.70966 1.31217,4.96449 1.46588,14.84511 0.31239,20.08117 -3.78,17.1587 -16.55524,30.55063 -33.47673,35.09268 -3.97705,1.06753 -14.16868,1.75355 -17.66258,1.18892 z"
       id="path94"
       inkscape:connector-curvature="0"
       transform="matrix(0.26458333,0,0,0.26458333,0,217.62501)" />
    <path
       style="fill:#ba00ff;fill-opacity:1;stroke:none;stroke-width:0.50507629;stroke-opacity:1"
       d="m 41.859416,294.70655 c -2.56671,-0.42917 -7.943468,-2.35542 -11.869293,-4.25222 C 19.394427,285.33492 10.9957,275.67976 6.8502667,263.8528 5.4220464,259.77808 5.2899864,258.81836 5.0910642,251.06831 c -0.1880505,-7.32649 -0.080458,-8.91266 0.8565042,-12.62691 1.3888273,-5.50549 4.8164606,-12.34558 8.6261146,-17.21402 9.473941,-12.10695 26.073904,-19.04443 40.991689,-17.1313 16.941178,2.17262 30.201056,12.26931 37.114949,28.26104 2.711593,6.27186 3.349424,10.18574 3.097845,19.00903 -0.187903,6.59006 -0.395823,8.10113 -1.597475,11.60967 -5.865976,17.12731 -19.648725,29.24011 -35.906297,31.55582 -3.435902,0.4894 -13.869232,0.60058 -16.414978,0.17491 z"
       id="path166"
       inkscape:connector-curvature="0"
       transform="matrix(0.26458333,0,0,0.26458333,0,217.62501)" />
    <path
       style="fill:#ba00ff;fill-opacity:1;stroke:none;stroke-width:0.50507629;stroke-opacity:1"
       d="m 138.58152,294.59843 c -5.2922,-1.46766 -7.67358,-2.40224 -11.81987,-4.63872 -8.86948,-4.78413 -15.22927,-11.65777 -19.7889,-21.38777 -2.87745,-6.14032 -3.59311,-9.83445 -3.67577,-18.97356 -0.0828,-9.15986 0.4294,-11.50594 4.26085,-19.51512 4.536,-9.48194 11.49342,-16.54747 20.81036,-21.13372 7.20361,-3.54596 11.3035,-4.45441 20.31486,-4.50132 8.86899,-0.0462 12.66307,0.79742 20.20305,4.492 16.77427,8.21936 26.53802,25.26181 25.31891,44.19369 -1.24021,19.25943 -15.18633,36.09439 -33.90521,40.92843 -6.07789,1.56958 -17.01791,1.83962 -21.71828,0.53609 z"
       id="path168"
       inkscape:connector-curvature="0"
       transform="matrix(0.26458333,0,0,0.26458333,0,217.62501)" />
    <path
       style="fill:#ba00ff;fill-opacity:1;stroke:none;stroke-width:0.50507629;stroke-opacity:1"
       d="m 139.0866,196.61364 c -5.29221,-1.46767 -7.67358,-2.40224 -11.81988,-4.63873 -8.86947,-4.78413 -15.22926,-11.65777 -19.78889,-21.38777 -2.87745,-6.14032 -3.59312,-9.83445 -3.67577,-18.97356 -0.0828,-9.15986 0.42939,-11.50594 4.26085,-19.51511 4.536,-9.48194 11.49342,-16.54747 20.81035,-21.13372 7.20361,-3.54597 11.30351,-4.45441 20.31486,-4.50132 8.869,-0.0462 12.66307,0.79742 20.20305,4.49199 16.77428,8.21936 26.53803,25.26181 25.31892,44.1937 -1.24021,19.25942 -15.18633,36.09438 -33.90521,40.92843 -6.07789,1.56958 -17.01791,1.83962 -21.71828,0.53609 z"
       id="path170"
       inkscape:connector-curvature="0"
       transform="matrix(0.26458333,0,0,0.26458333,0,217.62501)" />
    <path
       style="fill:#ba00ff;fill-opacity:1;stroke:none;stroke-width:0.50507629;stroke-opacity:1"
       d="M 42.364492,196.72175 C 39.797782,196.29258 34.421025,194.36633 30.4952,192.46954 19.899504,187.35012 11.500776,177.69496 7.355343,165.868 5.9271227,161.79328 5.7950627,160.83357 5.5961404,153.08351 c -0.1880504,-7.32649 -0.080458,-8.91266 0.8565043,-12.6269 1.3888273,-5.5055 4.8164603,-12.34558 8.6261153,-17.21402 9.47394,-12.10696 26.073903,-19.04444 40.991689,-17.13131 16.941177,2.17262 30.201055,12.26931 37.114948,28.26104 2.711593,6.27187 3.349424,10.18574 3.097845,19.00903 -0.187903,6.59006 -0.395823,8.10113 -1.597475,11.60968 -5.865976,17.1273 -19.648725,29.2401 -35.906296,31.55581 -3.435903,0.48941 -13.869233,0.60058 -16.414979,0.17491 z"
       id="path172"
       inkscape:connector-curvature="0"
       transform="matrix(0.26458333,0,0,0.26458333,0,217.62501)" />
    <path
       style="fill:#ba00ff;fill-opacity:1;stroke:none;stroke-width:0.50507629;stroke-opacity:1"
       d="M 43.189191,97.831168 C 27.472817,94.550748 14.31841,83.946359 9.0751004,70.330195 6.2782714,63.067208 5.8204075,60.539983 5.8204999,52.366096 5.8205769,45.555077 5.9598581,44.333395 7.1996411,40.269189 11.721857,25.444645 22.698498,14.041117 37.074166,9.2328273 42.413771,7.4468675 50.879807,6.7718328 58.021856,7.5625748 68.644555,8.7386817 79.718453,15.159588 86.995102,24.361942 94.187236,33.457413 97.351277,43.456139 96.777641,55.2759 95.796086,75.501069 82.257739,91.875683 62.180316,97.121334 57.031695,98.466519 47.873164,98.808839 43.189191,97.831168 Z"
       id="path174"
       inkscape:connector-curvature="0"
       transform="matrix(0.26458333,0,0,0.26458333,0,217.62501)" />
    <path
       style="fill:#ba00ff;fill-opacity:1;stroke:none;stroke-width:0.50507629;stroke-opacity:1"
       d="M 138.07644,97.302964 C 127.66395,94.386002 119.62475,89.051614 113.30727,80.867459 105.21291,70.381364 101.99689,56.490823 104.72053,43.7798 108.46074,26.324535 121.85498,12.55011 139.17301,8.3493951 144.3736,7.0879247 155.52597,7.2317628 160.80488,8.6283927 177.101,12.939828 189.66676,25.612763 193.92171,42.02766 c 0.97775,3.772003 1.07277,5.165337 0.85884,12.593152 -0.26523,9.208945 -0.79273,11.479702 -4.27376,18.397424 -6.09285,12.108067 -14.91514,19.620642 -27.93415,23.787137 -3.72535,1.192238 -5.32854,1.400208 -12.12183,1.572485 -7.17723,0.182019 -8.20694,0.09257 -12.37437,-1.074894 z"
       id="path176"
       inkscape:connector-curvature="0"
       transform="matrix(0.26458333,0,0,0.26458333,0,217.62501)" />
    <path
       style="fill:#ba00ff;fill-opacity:1;stroke:none;stroke-width:0.50507629;stroke-opacity:1"
       d="m 238.08155,97.808041 c -10.4125,-2.916962 -18.4517,-8.251351 -24.76917,-16.435505 -8.09437,-10.486096 -11.31039,-24.376637 -8.58675,-37.08766 3.74021,-17.455265 17.13445,-31.22969 34.45248,-35.4304046 5.20059,-1.2614704 16.35296,-1.1176324 21.63187,0.2789976 16.29612,4.311435 28.86188,16.98437 33.11683,33.399268 0.97775,3.772003 1.07278,5.165336 0.85884,12.593152 -0.26523,9.208944 -0.79273,11.479701 -4.27376,18.397423 -6.09284,12.108067 -14.91514,19.620642 -27.93414,23.787138 -3.72536,1.192237 -5.32854,1.400207 -12.12184,1.572484 -7.17723,0.182019 -8.20694,0.09257 -12.37436,-1.074893 z"
       id="path178"
       inkscape:connector-curvature="0"
       transform="matrix(0.26458333,0,0,0.26458333,0,217.62501)" />
    <path
       style="fill:#ba00ff;fill-opacity:1;stroke:none;stroke-width:0.50507629;stroke-opacity:1"
       d="m 239.0917,197.11871 c -5.29221,-1.46766 -7.67358,-2.40224 -11.81988,-4.63872 -8.86947,-4.78413 -15.22926,-11.65777 -19.78889,-21.38777 -2.87745,-6.14032 -3.59312,-9.83445 -3.67577,-18.97356 -0.0828,-9.15986 0.42939,-11.50594 4.26085,-19.51512 4.536,-9.48194 11.49342,-16.54747 20.81035,-21.13372 7.20362,-3.54596 11.30351,-4.45441 20.31486,-4.50132 8.869,-0.0462 12.66307,0.79742 20.20305,4.492 16.77428,8.21936 26.53803,25.26181 25.31892,44.19369 -1.24021,19.25943 -15.18633,36.09439 -33.90521,40.92843 -6.07789,1.56958 -17.01791,1.83962 -21.71828,0.53609 z"
       id="path180"
       inkscape:connector-curvature="0"
       transform="matrix(0.26458333,0,0,0.26458333,0,217.62501)" />
    <path
       style="fill:#ba00ff;fill-opacity:1;stroke:none;stroke-width:0.50507629;stroke-opacity:1"
       d="m 238.58662,295.10351 c -5.2922,-1.46767 -7.67358,-2.40224 -11.81987,-4.63872 -8.86947,-4.78414 -15.22926,-11.65777 -19.7889,-21.38778 -2.87744,-6.14031 -3.59311,-9.83445 -3.67577,-18.97355 -0.0828,-9.15986 0.4294,-11.50594 4.26085,-19.51512 4.536,-9.48194 11.49342,-16.54747 20.81036,-21.13372 7.20361,-3.54597 11.30351,-4.45441 20.31486,-4.50132 8.86899,-0.0462 12.66307,0.79742 20.20305,4.492 16.77427,8.21936 26.53802,25.26181 25.31891,44.19369 -1.24021,19.25942 -15.18633,36.09439 -33.90521,40.92843 -6.07789,1.56958 -17.01791,1.83962 -21.71828,0.53609 z"
       id="path182"
       inkscape:connector-curvature="0"
       transform="matrix(0.26458333,0,0,0.26458333,0,217.62501)" />
  </g>
</svg>
