<?xml version="1.0" encoding="UTF-8" standalone="no"?>
<!-- Created with Inkscape (http://www.inkscape.org/) -->

<svg
   xmlns:dc="http://purl.org/dc/elements/1.1/"
   xmlns:cc="http://creativecommons.org/ns#"
   xmlns:rdf="http://www.w3.org/1999/02/22-rdf-syntax-ns#"
   xmlns:svg="http://www.w3.org/2000/svg"
   xmlns="http://www.w3.org/2000/svg"
   xmlns:sodipodi="http://sodipodi.sourceforge.net/DTD/sodipodi-0.dtd"
   xmlns:inkscape="http://www.inkscape.org/namespaces/inkscape"
   width="1750"
   height="300"
   viewBox="0 0 463.02083 79.374999"
   version="1.1"
   id="svg8"
   inkscape:version="0.92.2 (5c3e80d, 2017-08-06)"
   sodipodi:docname="logo.svg"
   inkscape:export-filename="C:\Users\Martin\workspaces\dicarlo\brain-score.web\static\benchmarks\img\logo.png"
   inkscape:export-xdpi="96"
   inkscape:export-ydpi="96">
  <defs
     id="defs2" />
  <sodipodi:namedview
     id="base"
     pagecolor="#ffffff"
     bordercolor="#666666"
     borderopacity="1.0"
     inkscape:pageopacity="0.0"
     inkscape:pageshadow="2"
     inkscape:zoom="0.7"
     inkscape:cx="812.73779"
     inkscape:cy="168.3878"
     inkscape:document-units="mm"
     inkscape:current-layer="layer1"
     showgrid="false"
     units="px"
     inkscape:window-width="1920"
     inkscape:window-height="1017"
     inkscape:window-x="1912"
     inkscape:window-y="-8"
     inkscape:window-maximized="1"
     inkscape:pagecheckerboard="true" />
  <metadata
     id="metadata5">
    <rdf:RDF>
      <cc:Work
         rdf:about="">
        <dc:format>image/svg+xml</dc:format>
        <dc:type
           rdf:resource="http://purl.org/dc/dcmitype/StillImage" />
        <dc:title></dc:title>
      </cc:Work>
    </rdf:RDF>
  </metadata>
  <g
     inkscape:label="Layer 1"
     inkscape:groupmode="layer"
     id="layer1"
     transform="translate(0,-217.62501)">
    <circle
       style="fill:#808080;fill-opacity:1;stroke:none;stroke-width:0.26458332;stroke-opacity:1"
       id="path22"
       cx="13.563929"
       cy="231.58041"
       r="12.22758" />
    <circle
       style="fill:#808080;fill-opacity:1;stroke:none;stroke-width:0.26458332;stroke-opacity:1"
       id="path22-6"
       cx="39.555889"
       cy="231.64723"
       r="12.22758" />
    <circle
       style="fill:#808080;fill-opacity:1;stroke:none;stroke-width:0.26458332;stroke-opacity:1"
       id="path22-3"
       cx="66.015572"
       cy="231.78087"
       r="12.22758" />
    <circle
       style="fill:#808080;fill-opacity:1;stroke:none;stroke-width:0.26458332;stroke-opacity:1"
       id="path22-4"
       cx="13.463707"
       cy="257.73944"
       r="12.22758" />
    <circle
       style="fill:#808080;fill-opacity:1;stroke:none;stroke-width:0.26458332;stroke-opacity:1"
       id="path22-6-5"
       cx="39.455666"
       cy="257.80624"
       r="12.22758" />
    <circle
       style="fill:#808080;fill-opacity:1;stroke:none;stroke-width:0.26458332;stroke-opacity:1"
       id="path22-3-6"
       cx="65.915344"
       cy="257.93988"
       r="12.22758" />
    <circle
       style="fill:#808080;fill-opacity:1;stroke:none;stroke-width:0.26458332;stroke-opacity:1"
       id="path22-8"
       cx="13.33007"
       cy="283.66458"
       r="12.22758" />
    <circle
       style="fill:#808080;fill-opacity:1;stroke:none;stroke-width:0.26458332;stroke-opacity:1"
       id="path22-6-1"
       cx="39.322033"
       cy="283.73138"
       r="12.22758" />
    <circle
       style="fill:#808080;fill-opacity:1;stroke:none;stroke-width:0.26458332;stroke-opacity:1"
       id="path22-3-5"
       cx="65.781708"
       cy="283.86502"
       r="12.22758" />
    <path
       style="fill:#800080;fill-opacity:1;stroke:none;stroke-width:0.50507629;stroke-opacity:1"
       d="M 45.532348,98.389101 C 25.859429,95.61153 10.258912,81.231276 6.3446167,62.266607 5.2968261,57.19009 5.1121858,49.64136 5.9237344,45.059491 9.0131871,27.616954 21.898223,13.327892 39.003127,8.3755821 42.516715,7.3583078 44.098933,7.2152964 51.607388,7.2363243 c 8.032243,0.022495 8.863321,0.1159503 12.879445,1.4483033 8.397752,2.7859644 14.080082,6.3375484 19.980696,12.4883914 19.709101,20.544893 15.975581,54.079907 -7.774482,69.831635 -8.915521,5.913029 -21.111608,8.803252 -31.160699,7.384447 z"
       id="path78"
       inkscape:connector-curvature="0"
       transform="matrix(0.26458333,0,0,0.26458333,0,217.62501)" />
    <path
       style="fill:#800080;fill-opacity:1;stroke:none;stroke-width:0.50507629;stroke-opacity:1"
       d="m 143.02619,98.590965 c -0.55558,-0.130466 -2.55698,-0.590672 -4.44755,-1.022678 -21.9942,-5.025807 -37.46747,-27.128061 -34.73314,-49.613318 2.3401,-19.24327 15.66892,-34.559689 34.41622,-39.5483808 5.68474,-1.5127178 15.52929,-1.6306748 21.39397,-0.2563419 18.12129,4.2465507 31.67214,18.5251877 35.1803,37.0697747 0.77545,4.099115 0.31647,15.528291 -0.78594,19.570952 -1.25195,4.591022 -5.39959,12.744544 -8.4964,16.702408 -5.80037,7.413115 -13.89549,12.827972 -23.4373,15.677299 -3.62838,1.083485 -5.69305,1.357049 -11.26147,1.492112 -3.7502,0.09096 -7.2731,0.05863 -7.82869,-0.07183 z"
       id="path80"
       inkscape:connector-curvature="0"
       transform="matrix(0.26458333,0,0,0.26458333,0,217.62501)" />
    <path
       style="fill:#800080;fill-opacity:1;stroke:none;stroke-width:0.50507629;stroke-opacity:1"
       d="m 243.0313,99.096041 c -0.55559,-0.130466 -2.55699,-0.590671 -4.44755,-1.022678 -21.99421,-5.025807 -37.46748,-27.128061 -34.73314,-49.613318 2.34009,-19.24327 15.66891,-34.559689 34.41622,-39.5483806 5.68473,-1.5127177 15.52928,-1.6306747 21.39396,-0.2563418 18.12129,4.2465514 31.67214,18.5251874 35.18031,37.0697744 0.77544,4.099115 0.31647,15.528291 -0.78595,19.570952 -1.25195,4.591022 -5.39959,12.744544 -8.4964,16.702408 -5.80036,7.413115 -13.89549,12.827972 -23.43729,15.6773 -3.62839,1.083484 -5.69306,1.357049 -11.26148,1.492111 -3.75019,0.09096 -7.2731,0.05863 -7.82868,-0.07183 z"
       id="path82"
       inkscape:connector-curvature="0"
       transform="matrix(0.26458333,0,0,0.26458333,0,217.62501)" />
    <path
       style="fill:#800080;fill-opacity:1;stroke:none;stroke-width:0.50507629;stroke-opacity:1"
       d="m 243.0313,198.05556 c -16.13904,-2.60812 -28.84927,-12.10919 -35.62943,-26.63348 -2.94484,-6.30835 -3.5804,-9.23495 -3.85199,-17.73768 -0.22056,-6.90478 -0.12984,-8.01065 1.02367,-12.47939 5.08818,-19.71172 21.936,-33.56109 42.09219,-34.60094 9.06305,-0.46755 16.04946,1.08241 24.24593,5.37907 11.41546,5.98408 19.4122,16.33772 22.94655,29.70966 1.31217,4.96449 1.46587,14.8451 0.31239,20.08116 -3.78,17.1587 -16.55525,30.55063 -33.47674,35.09269 -3.97705,1.06752 -14.16867,1.75354 -17.66257,1.18891 z"
       id="path84"
       inkscape:connector-curvature="0"
       transform="matrix(0.26458333,0,0,0.26458333,0,217.62501)" />
    <path
       style="fill:#800080;fill-opacity:1;stroke:none;stroke-width:0.50507629;stroke-opacity:1"
       d="m 143.02619,197.55049 c -16.13903,-2.60813 -28.84926,-12.1092 -35.62942,-26.63348 -2.94485,-6.30836 -3.5804,-9.23495 -3.85199,-17.73769 -0.22056,-6.90477 -0.12984,-8.01065 1.02367,-12.47939 5.08818,-19.71172 21.936,-33.56109 42.09219,-34.60093 9.06304,-0.46756 16.04946,1.08241 24.24593,5.37906 11.41546,5.98408 19.4122,16.33773 22.94655,29.70966 1.31216,4.96449 1.46587,14.8451 0.31238,20.08116 -3.77999,17.15871 -16.55524,30.55063 -33.47673,35.09269 -3.97705,1.06752 -14.16867,1.75355 -17.66258,1.18892 z"
       id="path86"
       inkscape:connector-curvature="0"
       transform="matrix(0.26458333,0,0,0.26458333,0,217.62501)" />
    <path
       style="fill:#800080;fill-opacity:1;stroke:none;stroke-width:0.50507629;stroke-opacity:1"
       d="M 41.000787,196.57319 C 36.943236,195.68138 30.831415,193.16674 26.779239,190.7219 17.133463,184.90223 9.3234245,174.33583 6.3098049,163.02831 4.837262,157.50312 4.7079668,146.53255 6.0518831,141.14391 9.9137263,125.65924 21.204187,113.26035 36.069991,108.17879 c 24.971601,-8.536017 51.191792,5.18263 59.038576,30.88953 1.25512,4.11192 1.37802,5.23528 1.37802,12.59577 0,7.3312 -0.125966,8.49357 -1.357271,12.52417 -4.751632,15.55416 -16.445521,27.25816 -31.66652,31.69391 -5.051,1.47198 -17.20734,1.84595 -22.462009,0.69102 z"
       id="path88"
       inkscape:connector-curvature="0"
       transform="matrix(0.26458333,0,0,0.26458333,0,217.62501)" />
    <path
       style="fill:#800080;fill-opacity:1;stroke:none;stroke-width:0.50507629;stroke-opacity:1"
       d="M 40.49571,294.55799 C 36.438159,293.66617 30.326338,291.15154 26.274163,288.7067 16.628387,282.88702 8.8183482,272.32063 5.8047286,261.0131 4.3321858,255.48791 4.2028905,244.51734 5.5468068,239.1287 9.40865,223.64404 20.699111,211.24515 35.564915,206.16359 c 24.971601,-8.53602 51.191792,5.18263 59.038576,30.88952 1.25512,4.11192 1.37802,5.23529 1.37802,12.59578 0,7.3312 -0.125966,8.49357 -1.357272,12.52417 -4.751631,15.55416 -16.44552,27.25816 -31.666519,31.6939 -5.051,1.47198 -17.207341,1.84596 -22.46201,0.69103 z"
       id="path90"
       inkscape:connector-curvature="0"
       transform="matrix(0.26458333,0,0,0.26458333,0,217.62501)" />
    <path
       style="fill:#800080;fill-opacity:1;stroke:none;stroke-width:0.50507629;stroke-opacity:1"
       d="m 142.52112,295.53529 c -16.13904,-2.60813 -28.84927,-12.1092 -35.62943,-26.63348 -2.94484,-6.30836 -3.58039,-9.23496 -3.85199,-17.73769 -0.22055,-6.90478 -0.12984,-8.01065 1.02367,-12.47939 5.08818,-19.71172 21.936,-33.56109 42.09219,-34.60094 9.06305,-0.46755 16.04947,1.08241 24.24593,5.37907 11.41547,5.98408 19.4122,16.33772 22.94655,29.70966 1.31217,4.96449 1.46588,14.8451 0.31239,20.08116 -3.78,17.15871 -16.55525,30.55063 -33.47673,35.09269 -3.97706,1.06752 -14.16868,1.75355 -17.66258,1.18892 z"
       id="path92"
       inkscape:connector-curvature="0"
       transform="matrix(0.26458333,0,0,0.26458333,0,217.62501)" />
    <path
       style="fill:#800080;fill-opacity:1;stroke:none;stroke-width:0.50507629;stroke-opacity:1"
       d="m 242.52622,296.04036 c -16.13904,-2.60813 -28.84927,-12.1092 -35.62943,-26.63348 -2.94484,-6.30836 -3.58039,-9.23495 -3.85199,-17.73769 -0.22055,-6.90477 -0.12984,-8.01065 1.02367,-12.47938 5.08818,-19.71173 21.936,-33.5611 42.09219,-34.60094 9.06305,-0.46756 16.04947,1.08241 24.24593,5.37906 11.41547,5.98409 19.4122,16.33773 22.94655,29.70966 1.31217,4.96449 1.46588,14.84511 0.31239,20.08117 -3.78,17.1587 -16.55524,30.55063 -33.47673,35.09268 -3.97705,1.06753 -14.16868,1.75355 -17.66258,1.18892 z"
       id="path94"
       inkscape:connector-curvature="0"
       transform="matrix(0.26458333,0,0,0.26458333,0,217.62501)" />
    <text
       xml:space="preserve"
       style="font-style:normal;font-variant:normal;font-weight:normal;font-stretch:normal;font-size:61.73611069px;line-height:1.25;font-family:sans-serif;-inkscape-font-specification:'sans-serif, Normal';font-variant-ligatures:normal;font-variant-caps:normal;font-variant-numeric:normal;font-feature-settings:normal;text-align:start;letter-spacing:0px;word-spacing:0px;writing-mode:lr-tb;text-anchor:start;fill:#000000;fill-opacity:1;stroke:none;stroke-width:0.26458332"
       x="101.47722"
       y="279.28751"
       id="text98"><tspan
         sodipodi:role="line"
         id="tspan96"
         x="101.47722"
         y="279.28751"
         style="font-style:normal;font-variant:normal;font-weight:normal;font-stretch:normal;font-size:61.73611069px;font-family:sans-serif;-inkscape-font-specification:'sans-serif, Normal';font-variant-ligatures:normal;font-variant-caps:normal;font-variant-numeric:normal;font-feature-settings:normal;text-align:start;writing-mode:lr-tb;text-anchor:start;stroke-width:0.26458332">Brain-Score</tspan></text>
    <path
       style="fill:#ba00ff;fill-opacity:1;stroke:none;stroke-width:1.42857146;stroke-opacity:1"
       d="m 234.56963,195.35423 c -22.66508,-8.09938 -35.58954,-32.40489 -29.10059,-54.72607 6.35856,-21.87268 24.28778,-34.46976 46.95309,-32.98927 16.74145,1.09355 30.23983,10.12321 37.63026,25.17253 5.21486,10.61917 5.61253,27.27566 0.89643,37.54707 -7.61849,16.59261 -23.57973,27.01273 -41.21103,26.90416 -5.5,-0.0339 -12.32567,-0.89266 -15.16816,-1.90842 z"
       id="path100"
       inkscape:connector-curvature="0"
       transform="matrix(0.26458333,0,0,0.26458333,0,217.62501)" />
    <path
       style="fill:#ba00ff;fill-opacity:1;stroke:none;stroke-width:1.42857146;stroke-opacity:1"
       d="M 235.06079,96.657263 C 222.76783,92.8184 210.24308,79.838432 206.06942,66.612196 c -3.21077,-10.174888 -2.10718,-22.792777 2.87946,-32.92208 5.1052,-10.37013 11.76068,-16.760108 22.64792,-21.744451 6.79198,-3.1094728 9.16657,-3.4527091 20.06518,-2.9003322 14.29496,0.7245144 20.73764,3.4219652 29.78704,12.4713682 9.55268,9.552677 12.51283,17.159051 12.54611,32.238352 0.0256,11.574477 -0.38918,13.610837 -4.15709,20.412002 -10.99652,19.848931 -33.56417,29.114665 -54.77725,22.490208 z"
       id="path102"
       inkscape:connector-curvature="0"
       transform="matrix(0.26458333,0,0,0.26458333,0,217.62501)" />
    <path
       style="fill:#ba00ff;fill-opacity:1;stroke:none;stroke-width:1.42857146;stroke-opacity:1"
       d="m 240.45208,97.495299 c -12.75901,-2.740263 -25.48917,-12.997583 -31.64453,-25.497553 -5.05924,-10.27404 -4.79061,-26.748843 0.61565,-37.757756 4.38085,-8.920848 11.93371,-16.513682 21.32165,-21.43449 5.11898,-2.683179 8.19528,-3.1833095 18.56331,-3.0179323 15.54594,0.2479683 23.55783,3.5110703 32.80569,13.3611723 8.31611,8.857686 11.19537,16.990469 11.19537,31.622575 0,13.922381 -3.65494,22.011605 -14.24921,31.536761 -10.278,9.240809 -26.19533,13.853094 -38.60793,11.187223 z"
       id="path104"
       inkscape:connector-curvature="0"
       transform="matrix(0.26458333,0,0,0.26458333,0,217.62501)" />
    <path
       style="fill:#ba00ff;fill-opacity:1;stroke:none;stroke-width:1.42857146;stroke-opacity:1"
       d="M 137.52431,96.891282 C 112.39934,89.798355 98.428206,62.774409 106.82166,37.504079 c 3.20262,-9.642174 13.09084,-20.429291 23.34097,-25.462791 6.9705,-3.4229805 9.79649,-3.9822662 19.57516,-3.8740766 14.21398,0.1572611 22.32274,3.4888116 31.9684,13.1344676 16.33801,16.338016 17.41726,43.711004 2.41448,61.238384 -10.56298,12.340462 -31.2021,18.697107 -46.59636,14.351219 z"
       id="path106"
       inkscape:connector-curvature="0"
       transform="matrix(0.26458333,0,0,0.26458333,0,217.62501)" />
    <path
       style="fill:#ba00ff;fill-opacity:1;stroke:none;stroke-width:1.42857146;stroke-opacity:1"
       d="M 40.351149,96.880232 C 18.102002,90.61353 4.9933498,72.330835 6.4815434,49.642142 7.3166147,36.910819 12.053086,27.075332 21.245755,18.983622 44.443699,-1.4360259 79.866678,6.3632169 92.578678,34.689325 c 3.494771,7.787385 3.858434,10.019363 3.316087,20.352428 -0.975544,18.586537 -9.490953,31.267103 -26.104499,38.873036 -9.110985,4.171147 -20.931127,5.361806 -29.439117,2.965443 z"
       id="path108"
       inkscape:connector-curvature="0"
       transform="matrix(0.26458333,0,0,0.26458333,0,217.62501)" />
    <path
       style="fill:#ba00ff;fill-opacity:1;stroke:none;stroke-width:1.42857146;stroke-opacity:1"
       d="M 38.952881,195.44595 C 26.642863,192.0025 16.380109,183.48716 10.228267,171.6122 5.7927901,163.05035 4.8655795,146.26575 8.2630305,136.03698 11.454374,126.42874 21.361068,115.63471 31.591203,110.61931 c 6.92166,-3.3934 9.865003,-3.9826 19.575162,-3.9186 14.023747,0.0924 22.549654,3.71735 32.391188,13.77158 21.219207,21.67781 14.374949,59.27087 -13.129185,72.1139 -8.357739,3.90265 -22.99352,5.2324 -31.475487,2.85976 z"
       id="path110"
       inkscape:connector-curvature="0"
       transform="matrix(0.26458333,0,0,0.26458333,0,217.62501)" />
    <path
       style="fill:#ba00ff;fill-opacity:1;stroke:none;stroke-width:1.42857146;stroke-opacity:1"
       d="m 137.59494,196.07548 c -20.94659,-6.89265 -33.06326,-22.96402 -33.37842,-44.27265 -0.13664,-9.2383 0.44898,-12.15675 3.82334,-19.05369 5.022,-10.26461 15.76241,-20.09517 25.66902,-23.49455 10.07572,-3.4574 24.20497,-3.18459 32.83762,0.63404 9.31484,4.1204 20.09088,14.66322 24.08224,23.56105 4.73881,10.56413 4.63371,27.35627 -0.23439,37.44823 -4.36313,9.04511 -13.03329,17.76094 -21.9727,22.08843 -7.4615,3.61205 -24.15411,5.28481 -30.82671,3.08914 z"
       id="path112"
       inkscape:connector-curvature="0"
       transform="matrix(0.26458333,0,0,0.26458333,0,217.62501)" />
    <path
       style="fill:#ba00ff;fill-opacity:1;stroke:none;stroke-width:1.42857146;stroke-opacity:1"
       d="M 31.166365,290.40559 C 14.459659,282.48926 5.6102083,268.36665 5.5150531,249.46934 5.4651948,239.56777 6.0235275,236.92295 9.6937833,229.67465 20.280055,208.76809 44.738681,199.1648 66.583271,207.33791 c 10.900722,4.07848 18.633101,11.27968 24.154455,22.49514 4.099487,8.32724 4.67746,10.88797 4.58121,20.29718 -0.08787,8.59004 -0.888918,12.40332 -3.960914,18.85534 -10.627387,22.3204 -37.848171,32.00729 -60.191657,21.42002 z"
       id="path114"
       inkscape:connector-curvature="0"
       transform="matrix(0.26458333,0,0,0.26458333,0,217.62501)" />
    <path
       style="fill:#ba00ff;fill-opacity:1;stroke:none;stroke-width:1.42857146;stroke-opacity:1"
       d="m 138.64417,294.37189 c -26.27354,-6.32839 -41.952085,-35.2645 -32.57105,-60.11269 4.03059,-10.67612 12.55477,-20.11232 22.64405,-25.06679 7.01729,-3.44593 9.86839,-4.00597 20.30634,-3.98874 10.32928,0.0171 13.20967,0.58156 19.28571,3.77971 27.21435,14.32438 33.77205,48.68904 13.66191,71.59323 -9.1345,10.40361 -29.9251,17.02333 -43.32696,13.79528 z"
       id="path116"
       inkscape:connector-curvature="0"
       transform="matrix(0.26458333,0,0,0.26458333,0,217.62501)" />
    <path
       style="fill:#ba00ff;fill-opacity:1;stroke:none;stroke-width:1.42857146;stroke-opacity:1"
       d="m 235.2009,293.9277 c -20.41576,-6.67866 -33.24809,-26.0049 -31.52446,-47.47768 1.31944,-16.43754 10.03113,-29.18462 24.97256,-36.54026 8.32238,-4.09709 10.88396,-4.67491 20.30629,-4.58046 20.26283,0.20311 36.60797,12.01298 42.82149,30.93985 2.4419,7.43823 2.13465,21.36413 -0.65678,29.76834 -3.19375,9.61548 -14.19916,21.4231 -23.85348,25.59219 -9.20692,3.9759 -23.75047,5.01818 -32.06562,2.29802 z"
       id="path118"
       inkscape:connector-curvature="0"
       transform="matrix(0.26458333,0,0,0.26458333,0,217.62501)" />
  </g>
</svg>
