<svg xmlns="http://www.w3.org/2000/svg" width="27.998" height="24.607" viewBox="0 0 27.998 24.607">
  <g id="warning_flat" transform="translate(-2 -5)">
    <path id="Path_12008" data-name="Path 12008" d="M14.839,5.668,2.179,27.6a1.343,1.343,0,0,0,1.16,2.01h25.32a1.341,1.341,0,0,0,1.16-2.01L17.159,5.668A1.342,1.342,0,0,0,14.839,5.668Z" fill="#1aa6d6"/>
    <path id="Path_12009" data-name="Path 12009" d="M14.6,21.5a1.4,1.4,0,1,0,2.8-.01v-9.16a1.4,1.4,0,1,0-2.8,0Z" fill="#fff"/>
    <path id="Path_12010" data-name="Path 12010" d="M17.4,25.478a1.4,1.4,0,1,1-1.4-1.4A1.4,1.4,0,0,1,17.4,25.478Z" fill="#fff"/>
  </g>
</svg>
