<?xml version="1.0" encoding="UTF-8"?>
<!-- Generator: Adobe Illustrator 16.0.4, SVG Export Plug-In . SVG Version: 6.00 Build 0)  -->
<!DOCTYPE svg PUBLIC "-//W3C//DTD SVG 1.1//EN" "https://www.w3.org/Graphics/SVG/1.1/DTD/svg11.dtd">
<svg version="1.1" id="Layer_1" xmlns="https://www.w3.org/2000/svg" xmlns:xlink="https://www.w3.org/1999/xlink" x="0px" y="0px" width="458.198px" height="150.777px" viewBox="0 0 458.198 150.777" enable-background="new 0 0 458.198 150.777" xml:space="preserve">
<g>
	<path fill="#231F20" d="M296.228,96.945c-2.697,0-4.887,2.188-4.887,4.885c0,2.701,2.189,4.889,4.887,4.889   c2.699,0,4.887-2.188,4.887-4.889C301.114,99.133,298.927,96.945,296.228,96.945 M435.819,121.32h13.789   c-0.24-3.932-2.842-6.654-6.592-6.654C438.661,114.666,436.546,117.268,435.819,121.32 M427.593,124.646   c0-9.193,6.229-16.33,15.303-16.33c9.98,0,15.303,7.621,15.303,18.689h-22.5c0.604,4.777,3.266,7.742,7.924,7.742   c3.205,0,5.08-1.451,5.986-3.811h8.107c-1.148,5.504-6.051,10.162-14.035,10.162C433.399,141.1,427.593,133.9,427.593,124.646    M396.868,124.707c0-9.254,6.049-16.391,15.486-16.391c8.043,0,13.004,4.656,14.092,11.371h-8.045   c-0.543-2.723-2.662-4.779-5.686-4.779c-4.959,0-7.5,3.811-7.5,9.799c0,5.867,2.359,9.799,7.379,9.799   c3.326,0,5.688-1.754,6.23-5.262h7.924c-0.545,6.594-5.686,11.855-13.973,11.855C402.978,141.1,396.868,133.963,396.868,124.707    M375.036,113.396h0.182c2.117-3.328,4.961-5.08,9.193-5.08c6.412,0,10.707,4.838,10.707,11.611v20.266h-8.227v-19.055   c0-3.326-1.936-5.686-5.383-5.686c-3.631,0-6.291,2.904-6.291,7.139v17.602h-8.227v-31.031h8.045V113.396z M342.618,121.32h13.791   c-0.242-3.932-2.842-6.654-6.592-6.654C345.462,114.666,343.345,117.268,342.618,121.32 M334.392,124.646   c0-9.193,6.232-16.33,15.305-16.33c9.98,0,15.303,7.621,15.303,18.689h-22.502c0.605,4.777,3.266,7.742,7.924,7.742   c3.207,0,5.082-1.451,5.988-3.811h8.105c-1.148,5.504-6.049,10.162-14.033,10.162C340.198,141.1,334.392,133.9,334.392,124.646    M324.716,123.316c0-4.537-2.42-8.408-7.379-8.408c-4.174,0-6.955,3.268-6.955,8.469c0,5.262,2.781,8.348,7.016,8.348   C322.601,131.725,324.716,127.914,324.716,123.316 M303.001,141.1h8.166c0.666,1.934,2.42,3.447,6.23,3.447   c4.658,0,6.896-2.238,6.896-6.473v-3.387h-0.184c-1.814,2.057-4.172,3.629-8.104,3.629c-6.896,0-13.67-5.443-13.67-14.818   c0-9.254,5.564-15.182,13.428-15.182c3.871,0,6.713,1.512,8.588,4.111h0.123v-3.266h7.924v28.672c0,4.354-1.393,7.318-3.691,9.434   c-2.6,2.42-6.594,3.51-11.189,3.51C309.05,150.777,303.849,147.148,303.001,141.1 M292.114,109.162h8.227v31.031h-8.227V109.162z    M280.261,96.945h8.227v43.248h-8.227V96.945z M268.89,96.945h8.227v43.248h-8.227V96.945z M244.397,121.32h13.791   c-0.242-3.932-2.842-6.654-6.594-6.654C247.241,114.666,245.124,117.268,244.397,121.32 M236.171,124.646   c0-9.193,6.232-16.33,15.305-16.33c9.979,0,15.301,7.621,15.301,18.689h-22.5c0.605,4.777,3.266,7.742,7.924,7.742   c3.205,0,5.08-1.451,5.988-3.811h8.105c-1.15,5.504-6.051,10.162-14.033,10.162C241.979,141.1,236.171,133.9,236.171,124.646    M218.513,109.162h4.293v-9.678h8.045v9.678h5.322v5.443h-5.322v16.453c0,2.299,1.271,3.086,3.086,3.086   c1.027,0,2.418-0.062,2.418-0.062v6.049c0,0-1.875,0.121-5.141,0.121c-3.992,0-8.408-1.572-8.408-7.439v-18.207h-4.293V109.162z    M197.888,113.396h0.182c2.117-3.328,4.961-5.08,9.195-5.08c6.412,0,10.707,4.838,10.707,11.611v20.266h-8.227v-19.055   c0-3.326-1.938-5.686-5.383-5.686c-3.631,0-6.293,2.904-6.293,7.139v17.602h-8.225v-31.031h8.043V113.396z M177.386,96.945h8.77   v43.248h-8.77V96.945z M390.396,67.08h0.182c1.875-3.508,3.992-5.322,7.623-5.322c0.906,0,1.451,0.061,1.936,0.242v7.199h-0.182   c-5.385-0.545-9.254,2.297-9.254,8.83V93.15h-8.229V62.121h7.924V67.08z M372.132,77.666c0-6.049-2.842-10.162-7.861-10.162   c-5.082,0-7.865,4.113-7.865,10.162s2.783,10.102,7.865,10.102C369.29,87.768,372.132,83.715,372.132,77.666 M348.06,77.666   c0-9.254,6.594-16.393,16.211-16.393s16.209,7.139,16.209,16.393s-6.592,16.391-16.209,16.391S348.06,86.92,348.06,77.666    M331.427,62.121h4.236v-2.783c0-7.561,5.867-10.221,13.791-9.375v6.352c-3.873-0.182-5.566,0.301-5.566,3.508v2.299h5.566v5.686   h-5.566V93.15h-8.225V67.807h-4.236V62.121z M304.817,62.121h4.293v-9.678h8.045v9.678h5.322v5.443h-5.322v16.453   c0,2.299,1.271,3.084,3.086,3.084c1.027,0,2.418-0.061,2.418-0.061v6.049c0,0-1.875,0.121-5.141,0.121   c-3.992,0-8.408-1.572-8.408-7.439V67.564h-4.293V62.121z M278.085,83.109h7.621c0.545,3.57,3.086,5.143,6.773,5.143   c3.631,0,5.688-1.391,5.688-3.57c0-2.963-3.932-3.266-8.166-4.111c-5.564-1.09-11.01-2.602-11.01-9.377   c0-6.713,5.564-9.92,12.643-9.92c8.166,0,12.703,4.053,13.307,10.283h-7.439c-0.363-3.326-2.48-4.535-5.988-4.535   c-3.207,0-5.322,1.209-5.322,3.447c0,2.66,4.111,2.902,8.527,3.811c5.203,1.088,10.949,2.539,10.949,9.799   c0,6.23-5.324,9.979-13.064,9.979C283.589,94.057,278.569,89.703,278.085,83.109 M255.347,74.279h13.789   c-0.242-3.932-2.842-6.654-6.594-6.654C258.188,67.625,256.071,70.227,255.347,74.279 M247.12,77.605   c0-9.193,6.23-16.332,15.303-16.332c9.98,0,15.303,7.621,15.303,18.691h-22.5c0.604,4.777,3.266,7.742,7.922,7.742   c3.207,0,5.08-1.451,5.988-3.811h8.105c-1.15,5.506-6.049,10.16-14.033,10.16C252.925,94.057,247.12,86.861,247.12,77.605    M237.202,93.15v-3.629h-0.182c-2.117,2.842-4.535,4.477-8.891,4.477c-6.896,0-10.768-4.416-10.768-11.189V62.121h8.168v19.295   c0,3.631,1.633,5.625,5.141,5.625c3.871,0,6.23-2.904,6.23-7.016V62.121h8.225V93.15H237.202z M198.858,85.771l-3.811-3.508   l4.477-4.84l3.932,3.629c1.33-2.6,1.996-5.867,1.996-9.436c0-8.65-3.752-15.363-11.676-15.363c-7.922,0-11.855,6.713-11.855,15.363   c0,8.59,3.934,15.303,11.855,15.303C195.714,86.92,197.407,86.559,198.858,85.771 M204.786,91.154   c-3.086,1.875-6.836,2.965-11.07,2.965c-12.762,0-20.746-9.557-20.746-22.502s7.984-22.562,20.746-22.562   s20.688,9.617,20.688,22.562c0,5.928-1.693,11.131-4.719,15.062l4.598,4.111l-4.477,4.9L204.786,91.154z M235.688,2.861h34.779   v7.379h-13.004v35.869h-8.77V10.24h-13.006V2.861z M223.653,2.861h8.771v43.248h-8.771V2.861z M177.386,2.861h12.34l6.107,21.713   c1.512,5.445,2.723,11.676,2.723,11.676h0.121c0,0,1.148-6.23,2.662-11.676l6.107-21.713h12.523v43.248h-8.166V21.309   c0-3.508,0.361-8.951,0.361-8.951h-0.121c0,0-0.967,5.08-1.875,8.227l-7.439,25.525h-8.406l-7.26-25.525   c-0.908-3.146-1.875-8.227-1.875-8.227h-0.119c0,0,0.359,5.443,0.359,8.951v24.801h-8.043V2.861z"/>
	<path fill="#00FF00" d="M163.08,128.748c0,7.9-6.405,14.305-14.306,14.305s-14.305-6.404-14.305-14.305s6.404-14.307,14.305-14.307   S163.08,120.848,163.08,128.748 M143.054,71.527C143.054,32.023,111.029,0,71.526,0S0,32.023,0,71.527   c0,39.502,32.023,71.525,71.526,71.525S143.054,111.029,143.054,71.527"/>
</g>
</svg>